<svg width="61" height="80" viewBox="0 0 61 80" fill="none" xmlns="http://www.w3.org/2000/svg">
<path d="M30.0996 76.6849C30.0996 76.6849 57.5996 54.6849 57.5996 30.8516C57.5996 15.6637 45.2875 3.35156 30.0996 3.35156C14.9117 3.35156 2.59961 15.6637 2.59961 30.8516C2.59961 54.6849 30.0996 76.6849 30.0996 76.6849Z" fill="#FF2F2F" stroke="black" stroke-width="4.92214" stroke-linejoin="round"/>
<path d="M30.5398 45.2777C37.83 45.2777 43.7398 39.3678 43.7398 32.0777C43.7398 24.7875 37.83 18.8777 30.5398 18.8777C23.2497 18.8777 17.3398 24.7875 17.3398 32.0777C17.3398 39.3678 23.2497 45.2777 30.5398 45.2777Z" fill="white" stroke="white" stroke-width="4.92214" stroke-linejoin="round"/>
<path d="M27.4928 29.06V25.38H33.6528V40H29.5528V29.06H27.4928Z" fill="black"/>
</svg>
