<svg width="61" height="79" viewBox="0 0 61 79" fill="none" xmlns="http://www.w3.org/2000/svg">
<path d="M30.9004 75.9818C30.9004 75.9818 58.4004 53.9818 58.4004 30.1484C58.4004 14.9606 46.0883 2.64844 30.9004 2.64844C15.7125 2.64844 3.40039 14.9606 3.40039 30.1484C3.40039 53.9818 30.9004 75.9818 30.9004 75.9818Z" fill="#FF2F2F" stroke="black" stroke-width="4.92214" stroke-linejoin="round"/>
<path d="M31.3406 44.5746C38.6308 44.5746 44.5406 38.6647 44.5406 31.3746C44.5406 24.0844 38.6308 18.1746 31.3406 18.1746C24.0505 18.1746 18.1406 24.0844 18.1406 31.3746C18.1406 38.6647 24.0505 44.5746 31.3406 44.5746Z" fill="white" stroke="white" stroke-width="4.92214" stroke-linejoin="round"/>
<path d="M26.6573 29.0369C26.7106 27.5302 27.1773 26.3769 28.0573 25.5769C28.9373 24.7635 30.1639 24.3569 31.7373 24.3569C32.7639 24.3569 33.6373 24.5369 34.3573 24.8969C35.0906 25.2435 35.6439 25.7235 36.0173 26.3369C36.3906 26.9369 36.5773 27.6169 36.5773 28.3769C36.5773 29.2835 36.3573 30.0102 35.9173 30.5569C35.4773 31.0902 34.9773 31.4502 34.4173 31.6369V31.7169C36.0306 32.3169 36.8373 33.4635 36.8373 35.1569C36.8373 35.9969 36.6439 36.7369 36.2573 37.3769C35.8706 38.0169 35.3106 38.5169 34.5773 38.8769C33.8439 39.2369 32.9706 39.4169 31.9573 39.4169C30.2906 39.4169 28.9706 39.0169 27.9973 38.2169C27.0373 37.4035 26.5373 36.1635 26.4973 34.4969H30.3173C30.2906 35.0302 30.4039 35.4435 30.6573 35.7369C30.9106 36.0302 31.2906 36.1769 31.7973 36.1769C32.1839 36.1769 32.4839 36.0569 32.6973 35.8169C32.9239 35.5769 33.0373 35.2569 33.0373 34.8569C33.0373 34.3502 32.8706 33.9769 32.5373 33.7369C32.2173 33.4969 31.6906 33.3769 30.9573 33.3769H30.2573V30.1969H30.9373C31.4439 30.2102 31.8706 30.1302 32.2173 29.9569C32.5773 29.7702 32.7573 29.4035 32.7573 28.8569C32.7573 28.4435 32.6573 28.1369 32.4573 27.9369C32.2573 27.7235 31.9839 27.6169 31.6373 27.6169C31.2506 27.6169 30.9639 27.7569 30.7773 28.0369C30.6039 28.3035 30.5039 28.6369 30.4773 29.0369H26.6573Z" fill="black"/>
</svg>
