<svg xmlns="http://www.w3.org/2000/svg" viewBox="0 0 500 500"><g id="freepik--background-complete--inject-13"><path d="M342.12,45.31c-42.22-42.89-88.17,14-90.49,17.8C249.45,59.19,202.35.6,161.86,42c-28.62,29.23-15.36,67.09-1.64,91.1a36.27,36.27,0,0,0,45.59,15.51,101.93,101.93,0,0,0,22.63-13.78l-9.86-10c.28-.13,2.45-1.82,2.45-1.82l12.85,5.74s3.84-5.28,6.5-8.55,13.06-13.35,13.06-13.35l-5.23-7.15L225.6,86.72l4.77-4.53L235.68,84l3.77-3.38a3,3,0,1,1,4.05,4.5l-1.28,1.09,5.9,2,3.15-2.81a3,3,0,1,1,4,4.49l-.62.53,11.77,4s13.17-11.15,14.7-12.06,5.47-2.11,7.74-.38l.1-.08c1.65,2.39.12,6.31-.9,7.77S275,103.35,275,103.35l2.31,9,.84-.84A3.1,3.1,0,0,1,282,111a3,3,0,0,1,.46,4.75L279,119.06l1.54,6,1.39-1.38a3.08,3.08,0,0,1,3.84-.5,3,3,0,0,1,.46,4.74l-4,3.79,2.18,8.51-4.87,4.42-11.25-23.51-6.74-5.74s-10.81,9.62-14.27,12-9,5.85-9,5.85l4.78,13.25s-1.84,2-2,2.31l-8-9c-7,7.83-17.76,23.17-21.3,30.58-2.52,5.28-3,9.25-2.38,12.72A17.25,17.25,0,0,0,216,193.82c16.52,12.79,29.47,19.79,32.66,21.24v.19l.1-.09.1.09v-.18c-.11.09,33.19-11.74,72.23-55C325.09,155.63,386.06,90,342.12,45.31Z" style="fill:#f5f5f5"></path><path d="M254.69,90.31l11.77,4s13.17-11.15,14.7-12.06a9.79,9.79,0,0,1,2.23-.89c-8.56-2.55-20.23-18.45-26.44-5.92-.79-3.89-7-2.62-9.07.75-1.41,2.3-2.14,5.14-3.46,7.44A3,3,0,0,1,243.5,85l-.22.19a7.27,7.27,0,0,1-1,.93l5.84,2,3.2-2.87a3,3,0,1,1,4,4.55Z" style="fill:#ebebeb"></path><path d="M218.8,34.35c-1.3-.7-2.62-1.37-4-2a3.7,3.7,0,0,0,.92,1.32A3.42,3.42,0,0,0,218.8,34.35Z" style="fill:#ebebeb"></path><path d="M239.69,120.58c1.13-1,1.63-2.51,2.56-3.69a6,6,0,0,1,3-2c3.81-3.88,8.18-8.12,8.18-8.12l-5.23-7.15L233.5,91.18a12.68,12.68,0,0,0-1.33,5.1q-.67,6.07-1.36,12.15c-.36,3.27-.69,6.77.81,9.67S237.24,122.72,239.69,120.58Z" style="fill:#ebebeb"></path><path d="M149.63,74.17c2.1-1.73,5.65-1.83,7.16.44,1.08,1.62.75,3.79.4,5.72q-.72,3.92-1.45,7.81a4.08,4.08,0,0,0,0,2.35c.71,1.68,3.39,1.45,4.46,0s1-3.48.8-5.29-.53-3.75.22-5.42c1.86-4.16,8-3.33,11.65-6,2.27-1.63,3.34-4.45,4.73-6.9s3.67-4.87,6.44-4.66c.94.06,1.85.44,2.78.43,2.75,0,4.46-4,2.58-6.07a6.87,6.87,0,0,1-1.17-1.31,2.33,2.33,0,0,1,1-2.75,6.45,6.45,0,0,1,2.94-.86c2.35-.32,4.7-.62,7-.92,2.6-.33,6-1.59,5.67-4.23-.25-2.29-3.25-3.41-3.63-5.68a7.74,7.74,0,0,0-.25-1.67c-.67-1.47-2.81-.95-4.21-.22a3.37,3.37,0,0,0-5.1-1.83c-1.42,1.12-1.65,3.17-2.19,4.9-1.27,4.21-4.68,7.32-7.93,10.21-1.08,1-2.31,2-3.75,2s-2.91-1.59-2.21-2.86c.48-.87,1.74-1.34,1.65-2.34-.13-1.24-2.25-1.21-2.63-2.41.93-3.47,4.91-4.8,8-6.58a19.12,19.12,0,0,0,8.25-9.72A2.55,2.55,0,0,0,191,28.3a1.73,1.73,0,0,0-1-.84,38.86,38.86,0,0,0-7.33,1.37,2.64,2.64,0,0,0-.4.67c-.49,1.17-.2,2.53-.51,3.75-.93,3.65-5.88,3.91-9,6-1.2.81-2.15,2-3.47,2.58a12.42,12.42,0,0,1-4.64.62c-.28,0-.56,0-.83.07q-1.5,2-2.89,4c-.88,1.31-4.65,2-5.76,3.24l-.21.3a76.18,76.18,0,0,0-6.4,11.94,55,55,0,0,0-2.59,8.79c0,.18-.08.35-.11.52a61.68,61.68,0,0,0-1.09,14.24c.49-1.53.82-3.07,1.12-4.3C146.62,78.65,147.55,75.89,149.63,74.17Z" style="fill:#ebebeb"></path><path d="M275.59,42.52a4.16,4.16,0,0,0,1.21-2.78c-1.26.81-2.48,1.65-3.67,2.5C273.77,43,275,43.32,275.59,42.52Z" style="fill:#ebebeb"></path><path d="M319.45,120.2c-2-.81-4.37-.27-6.36-1.13-2.6-1.12-3.74-4.17-4.61-6.9l-6.84-21.54c-1.38-4.33-3.51-9.36-7.91-10.12-2-.34-3.91.29-5.87.76a4.24,4.24,0,0,1,1.05.56l.09-.08c1.65,2.39.12,6.31-.9,7.77S275,103.29,275,103.29l2.31,9,.93-.92a3,3,0,1,1,4.21,4.33L279,119l1.54,6,1.48-1.46a3,3,0,1,1,4.21,4.33l-4,3.79,2.18,8.51-4.87,4.42-11.24-23.51-6.74-5.74s-2.94,2.61-6.24,5.45c9.31,12.35,12.38,28.77,12.36,44.45,0,3.06-.09,6.19.93,9.07,1.19,3.36,3.83,6.14,4.53,9.64.53,2.7-.14,5.62.92,8.15,1.22,3,4.45,4.2,7.63,3.9,2.78-2,5.69-4.27,8.71-6.72a32.68,32.68,0,0,0,2.64-8.73c.92-5,1.57-10.23,4.45-14.36,1.78-2.57,4.35-4.59,5.63-7.45,1.79-4,.7-8.83,2.37-12.87,2.22-5.38,8.36-7.6,12.8-11.28S324.76,122.36,319.45,120.2Z" style="fill:#ebebeb"></path><path d="M148.34,95.68c-.78-1-1.64-.78-2.45-.1.2,1.17.42,2.33.66,3.49a7.85,7.85,0,0,0,1.76-1.18A1.85,1.85,0,0,0,148.34,95.68Z" style="fill:#ebebeb"></path><path d="M356.15,79.51l-1.68-5.32a26.6,26.6,0,0,1-1-3.52c-3.9-12.19-14.4-18-20.81-27.57-2.09-3.12-3.71-5.7-7.56-6.41-5.7-1.08-8.69,2.16-12.58-3.49-1.05-1.52-2.91-3-4.55-2.12.38,1.2.77,2.39,1.15,3.61a1.73,1.73,0,0,1,.12.78c-.11.83-1.33,1-2,.54a7.39,7.39,0,0,1-1.47-2,5.54,5.54,0,0,0-8.21-.94,3.22,3.22,0,0,0-1-2.16l-.92.23A3.79,3.79,0,0,1,291,33.31a.77.77,0,0,1,.37-.88A68,68,0,0,0,281.42,37a3.47,3.47,0,0,0,1.14.2c1.18,0,2.39-.41,3.52-.07s2,1.88,1.17,2.72c-1.49,1.62-5.15-1.34-6,.7a6.38,6.38,0,0,0-.1,1.7c-.19,1.72-2.34,2.3-4.05,2.46a9.21,9.21,0,0,1-5-.53,3.1,3.1,0,0,1-.78-.58c-11.35,8.56-18.87,18.1-19.78,19.6a23.93,23.93,0,0,0-1.89-2.59,6.05,6.05,0,0,0-1.15,8.21c2.28,2.85,7.05,2.83,9.64.26,1.81-1.77,2.6-4.31,3.93-6.46s3.78-4,6.15-3.26A7.16,7.16,0,0,1,270.66,61c1.14,1,2.27,2.05,3.4,3.09a3.22,3.22,0,0,1,1.42,2.47c-.1.79-.72,1.39-1,2.12-.8,2.12,2.18,4.24,4.12,3.13s2.24-4.08,1-6c-1.72-2.6-5.76-4-5.56-7.13,2.13-1.67,5.35.25,6.49,2.74s1.09,5.37,2,7.93,3.74,4.9,6.17,3.74c-.56-2.21-1.1-4.4-1.66-6.59,1.56-1.12,3.21,2.32,5.05,1.81,1.12-.32,1.3-1.94.85-3s-1.27-2.05-1.44-3.24c-.29-2.17,2.13-4,4.25-3.61s3.59,2.53,3.92,4.68a10.27,10.27,0,0,0,.48,2.55c.75,1.72,2.79,2.29,4.47,3s3.41,2.56,2.65,4.27c-.35.75-1.16,1.45-.9,2.23s1.23,1,1.21,1.77c0,.5-.54.82-1,1-1.16.44-2.41.56-3.54,1.07A3.24,3.24,0,0,0,301,81.86c.08,1.77,2.12,2.68,3.05,4.17s.7,3.27,1.24,4.88a17.44,17.44,0,0,0,2.5,4c2.76,4.08,3.28,9.24,4.54,14,.56,2.16,1.63,4.58,3.77,5a6.56,6.56,0,0,0,3.49-.58c3.14-1.17,6.4-2.41,8.65-4.91s3.11-6.67.95-9.27a1.77,1.77,0,0,0-1-.72,3.08,3.08,0,0,0-1.65.54,4.59,4.59,0,0,1-4.8-1.21,13.78,13.78,0,0,1-2.75-4.48c-.8-1.78-1.59-3.57-2.41-5.36,1.05-.85,2.67-.43,3.7.46a20.22,20.22,0,0,1,2.44,3.26c2.48,3.36,6.69,4.94,10.78,5.56a10.14,10.14,0,0,1,3.07.74c3,1.53,3.77,6.16,7,7.25a20.8,20.8,0,0,1,2.74.72,5.2,5.2,0,0,1,2.2,3.56c.58,2.41.77,4.92,1.57,7.25,4.16-9.4,7.24-19.63,7.8-30C357.22,84.06,356.61,81.38,356.15,79.51Z" style="fill:#ebebeb"></path><path d="M211.93,141.32c-2.26-5-9.31-4.42-14.18-6.78-6.81-3.3-8.68-12.08-13-18.38-3.87-5.64-13.12-12-20.35-10.54-5.23,1-7.12,4.16-7.77,8l-.66-.13c-1.91-.27-4.16-.44-5.17-2.1-1.18-1.93.12-4.7-1.09-6.59a7.2,7.2,0,0,0-2.23-1.86A125.3,125.3,0,0,0,160,132.91a36.44,36.44,0,0,0,46.15,15.44c1.25-.54,2.48-1.12,3.69-1.72a4.12,4.12,0,0,0,2.07-5.27Z" style="fill:#ebebeb"></path><path d="M315.36,156.56c-1.64.28-2,1.25-2.92,2.45-1.2,1.57-2.9,3.13-4,4.68-1.86,2.62-.39,6.86-2.8,9-.49.45-1.11.73-1.56,1.23a2.79,2.79,0,0,0,0,3.42c5.47-5.12,11.16-10.86,17-17.31h0C319.88,157.75,317.9,156.13,315.36,156.56Z" style="fill:#ebebeb"></path><path d="M113.51,109.61a16.18,16.18,0,0,0-3.83-8.92,15.55,15.55,0,0,0-7.9-5.27A12.75,12.75,0,0,0,91.92,97a12.56,12.56,0,0,0-4.16,4.38,12.51,12.51,0,0,0-13.3-6.44,15.5,15.5,0,0,0-8.26,4.68,16.12,16.12,0,0,0-4.46,8.62,19.62,19.62,0,0,0,2,12.17A27.88,27.88,0,0,0,73,129.72c6.12,4,14.19,9,14.19,9s7.15-4.95,13.54-8.5a27.74,27.74,0,0,0,9.9-8.62A19.65,19.65,0,0,0,113.51,109.61Z" style="fill:#ebebeb"></path><path d="M429.49,62.18a14.09,14.09,0,0,0-3-10.91,10.88,10.88,0,0,0-5.12-3.17,9.06,9.06,0,0,0-7,1.12,8.87,8.87,0,0,0-2.86,3,.11.11,0,0,1-.19,0,8.71,8.71,0,0,0-2.46-2.8A9,9,0,0,0,402,47.75a10.76,10.76,0,0,0-5.33,2.79,14.09,14.09,0,0,0-3.77,10.67,13.15,13.15,0,0,0,1.47,4.67,19.86,19.86,0,0,0,6.59,6.62c4.1,2.68,9.42,6,10,6.38a.13.13,0,0,0,.12,0c.57-.4,5.31-3.65,9.58-6a19.86,19.86,0,0,0,7-6.14A12.93,12.93,0,0,0,429.49,62.18Z" style="fill:#f5f5f5"></path><path d="M442.74,148.56c1.15-5.75-1.06-14.19-5.07-18.47a18.24,18.24,0,0,0-8.66-5.37,15.09,15.09,0,0,0-16.72,6.89.18.18,0,0,1-.31,0,15.08,15.08,0,0,0-15.87-7.48,18.26,18.26,0,0,0-9,4.73c-4.3,4-7.12,12.25-6.39,18.07a22.21,22.21,0,0,0,2.5,7.9c2.54,4.58,6.76,8.36,11.15,11.22,6.93,4.53,15.95,10.15,17,10.79a.18.18,0,0,0,.2,0c1-.67,9-6.17,16.21-10.17,4.58-2.54,9.07-6,11.93-10.39A22.18,22.18,0,0,0,442.74,148.56Z" style="fill:#ebebeb"></path><path d="M371.38,199.76a9.13,9.13,0,0,0-3.63-4.1,8.78,8.78,0,0,0-5.16-1.43,7.16,7.16,0,0,0-5,2.58,7.09,7.09,0,0,0-1.46,3.08,7,7,0,0,0-2.65-1.6,7.19,7.19,0,0,0-5.6.49,8.72,8.72,0,0,0-3.6,4,9.1,9.1,0,0,0-.87,5.4,11.09,11.09,0,0,0,3.22,6.16,15.65,15.65,0,0,0,6.6,3.36c4,1.06,9.18,2.32,9.18,2.32s3-3.92,5.75-6.94a15.68,15.68,0,0,0,3.78-6.36A11.14,11.14,0,0,0,371.38,199.76Z" style="fill:#f5f5f5"></path><path d="M119,45.35a7.83,7.83,0,0,0-3.08-3.49,7.41,7.41,0,0,0-4.4-1.21,6,6,0,0,0-5.49,4.81,6,6,0,0,0-7-.94A7.49,7.49,0,0,0,96,47.9a7.77,7.77,0,0,0-.74,4.59A9.42,9.42,0,0,0,98,57.74a13.32,13.32,0,0,0,5.61,2.86c3.39.9,7.82,2,7.82,2s2.51-3.33,4.89-5.9a13.37,13.37,0,0,0,3.22-5.42A9.42,9.42,0,0,0,119,45.35Z" style="fill:#f5f5f5"></path><path d="M208.1,218.66a7.77,7.77,0,0,0-3.08-3.49,7.4,7.4,0,0,0-4.39-1.21,6.1,6.1,0,0,0-4.26,2.19,6.16,6.16,0,0,0-1.24,2.62,6,6,0,0,0-7-.94,7.51,7.51,0,0,0-3.07,3.38,7.71,7.71,0,0,0-.73,4.6,9.41,9.41,0,0,0,2.74,5.24,13.38,13.38,0,0,0,5.61,2.86c3.39.9,7.82,2,7.82,2s2.51-3.33,4.9-5.9a13.33,13.33,0,0,0,3.21-5.42A9.42,9.42,0,0,0,208.1,218.66Z" style="fill:#f5f5f5"></path></g><g id="freepik--Floor--inject-13"><path d="M473.66,450.11c0,.15-100.15.26-223.65.26s-223.67-.11-223.67-.26,100.12-.26,223.67-.26S473.66,450,473.66,450.11Z" style="fill:#263238"></path></g><g id="freepik--Lines--inject-13"><path d="M440.45,329.09c0,.15-14.63.26-32.67.26s-32.67-.11-32.67-.26,14.63-.26,32.67-.26S440.45,329,440.45,329.09Z" style="fill:#263238"></path><path d="M427.38,321c0,.15-8.92.26-19.91.26s-19.91-.11-19.91-.26,8.91-.26,19.91-.26S427.38,320.86,427.38,321Z" style="fill:#263238"></path><path d="M202.92,364.26c0,.14-7.1.26-15.86.26s-15.87-.12-15.87-.26,7.1-.26,15.87-.26S202.92,364.12,202.92,364.26Z" style="fill:#263238"></path><path d="M206,358.14c0,.15-5,.26-11.2.26s-11.2-.11-11.2-.26,5-.26,11.2-.26S206,358,206,358.14Z" style="fill:#263238"></path></g><g id="freepik--Flowers--inject-13"><path d="M416.31,264.41a7.18,7.18,0,0,0,6.44,4.69,6.56,6.56,0,0,0-6.44-4.69" style="fill:#455a64"></path><path d="M397.16,262.6l.11,0,.32.08c.28.06.69.18,1.23.29,1.06.24,2.62.55,4.56.8,1,.13,2,.23,3.19.32s2.38.13,3.67.13a72,72,0,0,0,8.41-.47,116.94,116.94,0,0,0,15-2.9c1.9-.48,3.43-.89,4.49-1.17l1.22-.33.31-.08.11,0-.1,0-.32.09-1.21.35c-1.05.3-2.58.72-4.48,1.21a112.88,112.88,0,0,1-15,2.93,67.85,67.85,0,0,1-8.42.46c-1.29,0-2.53-.06-3.68-.14s-2.22-.19-3.19-.33a44.1,44.1,0,0,1-4.56-.84c-.54-.12-.95-.24-1.23-.31l-.31-.09Z" style="fill:#263238"></path><path d="M434.52,259a.62.62,0,0,1-.28-1.2.62.62,0,0,1,.74.46A.62.62,0,0,1,434.52,259Z" style="fill:#DA983C"></path><path d="M436.45,259.08a.61.61,0,0,1-.74-.45.62.62,0,0,1,.46-.74.61.61,0,0,1,.74.45A.62.62,0,0,1,436.45,259.08Z" style="fill:#DA983C"></path><path d="M437.59,260.33a.61.61,0,0,1-.74-.45.62.62,0,0,1,.45-.74.61.61,0,1,1,.29,1.19Z" style="fill:#DA983C"></path><path d="M435.16,260.55a.61.61,0,1,1,.45-.74A.61.61,0,0,1,435.16,260.55Z" style="fill:#DA983C"></path><path d="M436.23,263.41a.61.61,0,1,1,.45-.74A.61.61,0,0,1,436.23,263.41Z" style="fill:#DA983C"></path><path d="M433.66,263.51a.62.62,0,0,1-.28-1.2.62.62,0,1,1,.28,1.2Z" style="fill:#DA983C"></path><path d="M430.35,262.33a.61.61,0,1,1,.46-.74A.62.62,0,0,1,430.35,262.33Z" style="fill:#DA983C"></path><path d="M438,263.11a.62.62,0,0,1-.74-.46.61.61,0,0,1,.45-.74.62.62,0,0,1,.74.46A.61.61,0,0,1,438,263.11Z" style="fill:#DA983C"></path><path d="M438.26,258.7a.61.61,0,0,1-.74-.45.62.62,0,0,1,.46-.74.61.61,0,0,1,.74.45A.62.62,0,0,1,438.26,258.7Z" style="fill:#DA983C"></path><path d="M436.82,261.73a.62.62,0,0,1-.74-.46.6.6,0,0,1,.45-.73.61.61,0,1,1,.29,1.19Z" style="fill:#DA983C"></path><path d="M438.89,261.63a.62.62,0,0,1-.29-1.2.62.62,0,0,1,.74.46A.62.62,0,0,1,438.89,261.63Z" style="fill:#DA983C"></path><path d="M440.35,258.78a.61.61,0,1,1,.45-.74A.61.61,0,0,1,440.35,258.78Z" style="fill:#DA983C"></path><path d="M440.81,260.91a.61.61,0,1,1,.45-.74A.62.62,0,0,1,440.81,260.91Z" style="fill:#DA983C"></path><path d="M439.28,260.16a.61.61,0,1,1,.45-.74A.61.61,0,0,1,439.28,260.16Z" style="fill:#DA983C"></path><path d="M441.85,259.51a.61.61,0,1,1,.45-.74A.61.61,0,0,1,441.85,259.51Z" style="fill:#DA983C"></path><path d="M432.89,260a.62.62,0,0,1-.74-.46.61.61,0,0,1,.45-.74.62.62,0,0,1,.29,1.2Z" style="fill:#DA983C"></path><path d="M431.36,261.12a.61.61,0,0,1-.29-1.19.62.62,0,0,1,.74.46A.61.61,0,0,1,431.36,261.12Z" style="fill:#DA983C"></path><path d="M433.2,261.82a.61.61,0,1,1,.45-.74A.61.61,0,0,1,433.2,261.82Z" style="fill:#DA983C"></path><path d="M432.14,263a.61.61,0,0,1-.74-.45.62.62,0,0,1,.46-.74.61.61,0,0,1,.74.45A.62.62,0,0,1,432.14,263Z" style="fill:#DA983C"></path><path d="M435,262.17a.62.62,0,0,1-.74-.46.6.6,0,0,1,.45-.73.61.61,0,1,1,.29,1.19Z" style="fill:#DA983C"></path><path d="M422.25,263c3.21-.87,6-3.74,6.31-7.06a7.79,7.79,0,0,0-6.31,7.06" style="fill:#455a64"></path><path d="M415.84,263a6.16,6.16,0,0,0,5.18-4.46,5.63,5.63,0,0,0-5.18,4.46" style="fill:#455a64"></path><path d="M424.16,263.78a7.19,7.19,0,0,0,7.23,3.35,6.56,6.56,0,0,0-7.23-3.35" style="fill:#455a64"></path><path d="M414.19,264.2s.24-.17.64-.44a18.12,18.12,0,0,0,1.51-1.14c.56-.47,1-.94,1.38-1.28s.56-.55.57-.54,0,.07-.13.17l-.38.43a18.25,18.25,0,0,1-1.37,1.31,14.3,14.3,0,0,1-1.53,1.12l-.5.28C414.26,264.18,414.19,264.21,414.19,264.2Z" style="fill:#263238"></path><path d="M420,266.94a6.58,6.58,0,0,1-.62-.48,18.12,18.12,0,0,0-1.52-1.08c-.61-.38-1.2-.69-1.62-.9l-.7-.35s.08,0,.2.06.31.12.53.21a13.81,13.81,0,0,1,3.17,2l.42.38Z" style="fill:#263238"></path><path d="M428.28,265.65a5.48,5.48,0,0,1-.73-.35c-.45-.23-1.07-.55-1.77-.88s-1.33-.6-1.79-.8a7,7,0,0,1-.75-.34s.08,0,.22.06l.56.2c.47.19,1.12.45,1.81.78s1.32.66,1.76.91l.51.3Z" style="fill:#263238"></path><path d="M421.64,263.42a6.49,6.49,0,0,1,.53-.48,15.81,15.81,0,0,0,1.22-1.23,16.21,16.21,0,0,0,1.08-1.35,5,5,0,0,1,.43-.58s0,.07-.09.18-.15.26-.27.45a12.56,12.56,0,0,1-1.07,1.38,12.26,12.26,0,0,1-1.25,1.21,4.74,4.74,0,0,1-.42.32Z" style="fill:#263238"></path><path d="M408.87,222.76a1.31,1.31,0,0,0-1.16.05c-.36.22-.54.64-.86.92s-.72.38-1,.65a1.71,1.71,0,0,0-.4,1.85,2.81,2.81,0,0,0,1.37,1.43,8.56,8.56,0,0,0,1.91.63l2.69-.21a9.16,9.16,0,0,0-1.59-4.59A2.54,2.54,0,0,0,408.87,222.76Z" style="fill:#DA983C"></path><path d="M415.86,226.64a8.23,8.23,0,0,0,1.33-1.51,2.11,2.11,0,0,0,.2-1.93,1.55,1.55,0,0,0-2.18-.55c-.3-.42-.74-.87-1.25-.78s-.81.74-.94,1.29a16.75,16.75,0,0,0-.42,3.74l2.15,1.4A4.12,4.12,0,0,1,415.86,226.64Z" style="fill:#DA983C"></path><g style="opacity:0.30000000000000004"><path d="M408.87,222.76a1.31,1.31,0,0,0-1.16.05c-.36.22-.54.64-.86.92s-.72.38-1,.65a1.71,1.71,0,0,0-.4,1.85,2.81,2.81,0,0,0,1.37,1.43,8.56,8.56,0,0,0,1.91.63l2.69-.21a9.16,9.16,0,0,0-1.59-4.59A2.54,2.54,0,0,0,408.87,222.76Z"></path></g><g style="opacity:0.30000000000000004"><path d="M415.86,226.64a8.23,8.23,0,0,0,1.33-1.51,2.11,2.11,0,0,0,.2-1.93,1.55,1.55,0,0,0-2.18-.55c-.3-.42-.74-.87-1.25-.78s-.81.74-.94,1.29a16.75,16.75,0,0,0-.42,3.74l2.15,1.4A4.12,4.12,0,0,1,415.86,226.64Z"></path></g><path d="M408.79,226.37A3,3,0,0,0,407,225.1a1.64,1.64,0,0,0-1.28.42,2.14,2.14,0,0,0-.66,1.2c-.09.47-.06,1-.39,1.36s-.58.34-.8.59a1,1,0,0,0-.14,1.06,2.25,2.25,0,0,0,.68.88,6.68,6.68,0,0,0,3.69,1.45,14.54,14.54,0,0,0,4-.28l.85-.35Z" style="fill:#DA983C"></path><path d="M414.05,231a12.87,12.87,0,0,0,3.26-1.39,5.91,5.91,0,0,0,2.33-2.62,2,2,0,0,0,.18-1,.94.94,0,0,0-.54-.78c-.27-.1-.59,0-.87-.14s-.59-.58-.85-.91a1.88,1.88,0,0,0-1-.68,1.48,1.48,0,0,0-1.18.19,2.59,2.59,0,0,0-.86,1.69c-.43,1.9-.85,3.79-1.28,5.68" style="fill:#DA983C"></path><path d="M413.22,231a18.31,18.31,0,0,0,1.27-5.36,4.94,4.94,0,0,0-.36-2.7,1.42,1.42,0,0,0-1.09-.83c-.79,0-1.32.91-2.11,1-.42,0-.84-.2-1.27-.14a1.38,1.38,0,0,0-1,.89,3.14,3.14,0,0,0,0,2.2,6.68,6.68,0,0,0,1.07,2,16.73,16.73,0,0,0,3.21,3.3" style="fill:#DA983C"></path><path d="M413.06,231.91a5,5,0,0,1-1.39.32.8.8,0,0,1-.27,0,.23.23,0,0,1-.17-.2c0-.13.11-.22.23-.26a1.3,1.3,0,0,0,.34-.15c-.05-.09-.16-.13-.25-.18s-.19-.15-.16-.25a.17.17,0,0,1,.15-.13.41.41,0,0,1,.22,0,4.37,4.37,0,0,1,.72.25,1.35,1.35,0,0,1-.35-.64.33.33,0,0,1,.05-.32.29.29,0,0,1,.32,0,.83.83,0,0,1,.23.26,1,1,0,0,1,.34-.55.27.27,0,0,1,.22-.08.21.21,0,0,1,.16.21.71.71,0,0,1-.05.29.48.48,0,0,0,0,.29,2.66,2.66,0,0,1,.53-.34.31.31,0,0,1,.28,0,.22.22,0,0,1,.06.31.67.67,0,0,1-.27.23,1.89,1.89,0,0,1,.47-.11.2.2,0,0,1,.17,0,.17.17,0,0,1,0,.21.57.57,0,0,1-.16.15,8.33,8.33,0,0,1-1.81.86" style="fill:#263238"></path><path d="M412.91,231.66l-.06,0-.17-.12c-.15-.1-.35-.26-.59-.46a10.7,10.7,0,0,1-.82-.76,11.48,11.48,0,0,1-1.71-2.14c-.23-.35-.41-.68-.56-1s-.25-.52-.32-.68l-.08-.19c0-.05,0-.07,0-.07l0,.06.09.18.35.67q.22.42.57,1c.23.35.49.72.79,1.1s.62.72.91,1,.56.56.8.77l.58.48.16.13Z" style="fill:#263238"></path><path d="M412.78,231.42a.17.17,0,0,1,0-.07l.07-.19c.07-.17.16-.4.27-.7.21-.59.49-1.42.73-2.35a21.35,21.35,0,0,0,.5-2.41c.05-.31.09-.57.11-.74l0-.2a.31.31,0,0,1,0-.07v.07l0,.2c0,.18,0,.43-.08.75a21.11,21.11,0,0,1-1.24,4.77l-.29.69-.09.18Z" style="fill:#263238"></path><path d="M416.08,227.92s0,.07-.07.17l-.26.44a9,9,0,0,1-1,1.35,10,10,0,0,1-1.22,1.14l-.42.3c-.1.06-.15.1-.16.09l.15-.12.39-.31a12.3,12.3,0,0,0,1.21-1.16,13,13,0,0,0,1-1.31l.27-.43Z" style="fill:#263238"></path><path d="M413.12,231.63h-.2l-.57,0a18,18,0,0,1-1.85-.27c-.72-.14-1.36-.3-1.82-.44l-.54-.18-.19-.07.2,0,.54.15c.47.12,1.11.28,1.82.42s1.37.23,1.85.29l.56.07Z" style="fill:#263238"></path><path d="M412.38,226.9s.22,1,.43,2.34.38,2.36.36,2.36-.22-1-.43-2.34S412.36,226.9,412.38,226.9Z" style="fill:#263238"></path><path d="M413.44,248.64c3.05,1,6.85.15,8.81-2.38a7.51,7.51,0,0,0-8.81,2.38" style="fill:#455a64"></path><path d="M398.07,264.42l.1-.08.3-.23c.26-.2.66-.49,1.14-.88,1-.78,2.38-2,4-3.5.81-.78,1.67-1.65,2.57-2.62s1.82-2,2.76-3.18a82.39,82.39,0,0,0,5.61-7.84,132.81,132.81,0,0,0,8.2-15.48c.94-2,1.67-3.7,2.18-4.85l.58-1.32c.06-.15.12-.26.15-.34l.06-.12-.05.12-.14.35-.56,1.33c-.49,1.15-1.22,2.82-2.14,4.87a130.83,130.83,0,0,1-8.18,15.51A82.42,82.42,0,0,1,409,254c-.94,1.15-1.88,2.21-2.77,3.18s-1.77,1.84-2.58,2.61a51.39,51.39,0,0,1-4,3.47c-.49.39-.89.67-1.16.87l-.3.22Z" style="fill:#263238"></path><path d="M421.57,229.68a.57.57,0,0,1-.77.27.58.58,0,0,1-.28-.77.57.57,0,0,1,.77-.27A.58.58,0,0,1,421.57,229.68Z" style="fill:#DA983C"></path><path d="M422.75,228.29a.59.59,0,0,1-.77.28.58.58,0,0,1-.28-.77.58.58,0,0,1,1.05.49Z" style="fill:#DA983C"></path><path d="M424.33,228.2a.56.56,0,0,1-.76.27.57.57,0,0,1-.28-.77.58.58,0,0,1,.77-.27A.57.57,0,0,1,424.33,228.2Z" style="fill:#DA983C"></path><path d="M423.06,230.11a.58.58,0,0,1-1.05-.49.58.58,0,0,1,.77-.28A.59.59,0,0,1,423.06,230.11Z" style="fill:#DA983C"></path><path d="M425.79,231a.58.58,0,1,1-.28-.77A.59.59,0,0,1,425.79,231Z" style="fill:#DA983C"></path><path d="M424.34,233a.57.57,0,0,1-.76.28.58.58,0,0,1,.49-1A.57.57,0,0,1,424.34,233Z" style="fill:#DA983C"></path><path d="M421.53,234.68a.58.58,0,1,1-.28-.77A.59.59,0,0,1,421.53,234.68Z" style="fill:#DA983C"></path><path d="M426.6,229.55a.58.58,0,1,1-1.05-.49.58.58,0,0,1,.77-.28A.59.59,0,0,1,426.6,229.55Z" style="fill:#DA983C"></path><path d="M423.53,226.74a.57.57,0,1,1-.27-.77A.57.57,0,0,1,423.53,226.74Z" style="fill:#DA983C"></path><path d="M424.9,229.59a.58.58,0,1,1-.27-.77A.57.57,0,0,1,424.9,229.59Z" style="fill:#DA983C"></path><path d="M426.05,228a.58.58,0,1,1-.28-.77A.59.59,0,0,1,426.05,228Z" style="fill:#DA983C"></path><path d="M424.82,225.26a.57.57,0,0,1-.77.27.58.58,0,1,1,.77-.27Z" style="fill:#DA983C"></path><path d="M426.66,226.18a.58.58,0,1,1-.28-.77A.59.59,0,0,1,426.66,226.18Z" style="fill:#DA983C"></path><path d="M425.2,226.86a.58.58,0,0,1-1-.5.58.58,0,1,1,1,.5Z" style="fill:#DA983C"></path><path d="M426.25,224.59a.58.58,0,1,1-.28-.77A.59.59,0,0,1,426.25,224.59Z" style="fill:#DA983C"></path><path d="M421.3,231.44a.57.57,0,1,1-1-.49.59.59,0,0,1,.77-.28A.58.58,0,0,1,421.3,231.44Z" style="fill:#DA983C"></path><path d="M421.23,233.24a.57.57,0,0,1-.77.27.58.58,0,1,1,.77-.27Z" style="fill:#DA983C"></path><path d="M422.83,232.3a.57.57,0,0,1-.77.27.56.56,0,0,1-.27-.76.57.57,0,1,1,1,.49Z" style="fill:#DA983C"></path><path d="M423.07,233.76a.58.58,0,1,1-.28-.77A.59.59,0,0,1,423.07,233.76Z" style="fill:#DA983C"></path><path d="M424.14,231.2a.57.57,0,0,1-.77.27.58.58,0,0,1-.28-.77.58.58,0,0,1,1.05.5Z" style="fill:#DA983C"></path><path d="M416.44,242.33c1.54-3.49,1-8.08-1.76-10.71a8.95,8.95,0,0,0,1.76,10.71" style="fill:#455a64"></path><path d="M411.88,248.07a7.06,7.06,0,0,0-.26-7.83,6.61,6.61,0,0,0-1.2,4,6.51,6.51,0,0,0,1.46,3.87" style="fill:#455a64"></path><path d="M418.51,241.18a8.24,8.24,0,0,0,8.19-4,7.5,7.5,0,0,0-8.19,4" style="fill:#455a64"></path><path d="M411.73,250.38a7.82,7.82,0,0,1,.07-.89,19.44,19.44,0,0,0,.07-2.16c0-.84-.09-1.6-.15-2.15,0-.26-.05-.48-.07-.66s0-.24,0-.24a.81.81,0,0,1,.06.24c0,.15.07.37.1.65a17.85,17.85,0,0,1,.19,2.16,14.69,14.69,0,0,1-.11,2.16q0,.42-.09.66A.79.79,0,0,1,411.73,250.38Z" style="fill:#263238"></path><path d="M418.31,247.21a8.9,8.9,0,0,1-.87.2,20.37,20.37,0,0,0-2.05.58,20,20,0,0,0-2,.8,8.73,8.73,0,0,1-.81.37l.2-.13a6.2,6.2,0,0,1,.57-.31,13.67,13.67,0,0,1,2-.84,14.86,14.86,0,0,1,2.08-.55c.27-.05.49-.09.64-.1A.87.87,0,0,1,418.31,247.21Z" style="fill:#263238"></path><path d="M423.15,238.85l-.23.11-.62.28c-.53.24-1.26.56-2.05.95s-1.5.75-2,1l-.6.32a.8.8,0,0,1-.23.11l.21-.15.58-.35c.5-.29,1.21-.67,2-1.06s1.53-.7,2.07-.92l.64-.24C423.06,238.86,423.14,238.84,423.15,238.85Z" style="fill:#263238"></path><path d="M416.39,243.18a6.12,6.12,0,0,1-.05-.83,18.67,18.67,0,0,0-.22-2,18.86,18.86,0,0,0-.43-1.93c-.14-.49-.23-.79-.22-.8a1,1,0,0,1,.1.2c.05.14.12.33.2.57a13.85,13.85,0,0,1,.47,1.94,15.31,15.31,0,0,1,.18,2c0,.25,0,.46,0,.6S416.39,243.18,416.39,243.18Z" style="fill:#263238"></path><path d="M401.05,257.5s0-.05.05-.12l.17-.33c.15-.28.36-.69.61-1.21a40.91,40.91,0,0,0,1.76-4.11,40.14,40.14,0,0,0,1.3-4.28c.13-.55.23-1,.3-1.32l.08-.36c0-.08,0-.12,0-.12a.69.69,0,0,1,0,.13l-.06.36c0,.32-.14.77-.26,1.33a36.31,36.31,0,0,1-3.06,8.41c-.27.51-.49.92-.65,1.19l-.19.32Z" style="fill:#263238"></path><path d="M405.09,241.56a.58.58,0,1,1-.42-.7A.58.58,0,0,1,405.09,241.56Z" style="fill:#DA983C"></path><path d="M406,240a.58.58,0,1,1-.42-.7A.58.58,0,0,1,406,240Z" style="fill:#DA983C"></path><path d="M407.51,239.56a.58.58,0,1,1-1.12-.28.56.56,0,0,1,.69-.42A.59.59,0,0,1,407.51,239.56Z" style="fill:#DA983C"></path><path d="M406.64,241.69a.58.58,0,0,1-.7.42.59.59,0,0,1-.43-.7.58.58,0,0,1,.7-.42A.58.58,0,0,1,406.64,241.69Z" style="fill:#DA983C"></path><path d="M409.49,242a.58.58,0,1,1-.42-.7A.58.58,0,0,1,409.49,242Z" style="fill:#DA983C"></path><path d="M408.47,244.21a.58.58,0,0,1-1.13-.27.58.58,0,0,1,1.13.27Z" style="fill:#DA983C"></path><path d="M406.05,246.47a.59.59,0,0,1-.7.43.58.58,0,0,1-.42-.7.59.59,0,0,1,.7-.43A.58.58,0,0,1,406.05,246.47Z" style="fill:#DA983C"></path><path d="M410,240.43a.58.58,0,0,1-1.12-.27.59.59,0,0,1,.7-.43A.58.58,0,0,1,410,240.43Z" style="fill:#DA983C"></path><path d="M406.43,238.29a.58.58,0,1,1-.42-.7A.58.58,0,0,1,406.43,238.29Z" style="fill:#DA983C"></path><path d="M408.34,240.81a.58.58,0,1,1-.42-.7A.58.58,0,0,1,408.34,240.81Z" style="fill:#DA983C"></path><path d="M409.15,239a.59.59,0,0,1-.7.43.58.58,0,0,1-.42-.7.58.58,0,1,1,1.12.27Z" style="fill:#DA983C"></path><path d="M407.4,236.58a.58.58,0,1,1-.42-.7A.58.58,0,0,1,407.4,236.58Z" style="fill:#DA983C"></path><path d="M409.38,237.12a.58.58,0,1,1-.42-.7A.58.58,0,0,1,409.38,237.12Z" style="fill:#DA983C"></path><path d="M408.75,235.47a.58.58,0,1,1-.42-.7A.58.58,0,0,1,408.75,235.47Z" style="fill:#DA983C"></path><path d="M408.09,238.07a.59.59,0,0,1-.7.43.58.58,0,0,1-.42-.7.58.58,0,0,1,.7-.43A.58.58,0,0,1,408.09,238.07Z" style="fill:#DA983C"></path><path d="M405.18,243.34a.58.58,0,1,1-.42-.7A.58.58,0,0,1,405.18,243.34Z" style="fill:#DA983C"></path><path d="M405.47,245.12a.57.57,0,0,1-.69.42.59.59,0,0,1-.43-.7.58.58,0,1,1,1.12.28Z" style="fill:#DA983C"></path><path d="M406.85,243.88a.57.57,0,0,1-.7.42.58.58,0,0,1-.42-.7.58.58,0,0,1,1.12.28Z" style="fill:#DA983C"></path><path d="M407.37,245.26a.57.57,0,0,1-.69.43.58.58,0,1,1,.27-1.13A.58.58,0,0,1,407.37,245.26Z" style="fill:#DA983C"></path><path d="M407.91,242.54a.58.58,0,1,1-.42-.7A.57.57,0,0,1,407.91,242.54Z" style="fill:#DA983C"></path><path d="M407.78,261.72l.12-.05.34-.12c.31-.1.74-.26,1.28-.46a40.56,40.56,0,0,0,4.1-1.78,41.27,41.27,0,0,0,3.88-2.23c.48-.31.86-.57,1.12-.75l.31-.21c.07-.05.11-.07.11-.06l-.1.08-.29.22c-.25.2-.63.47-1.11.79a36.06,36.06,0,0,1-3.87,2.27,36.66,36.66,0,0,1-4.12,1.75c-.54.19-1,.33-1.29.42l-.36.1Z" style="fill:#263238"></path><path d="M421.65,252.9a.58.58,0,0,1-.63-1,.57.57,0,0,1,.8.17A.58.58,0,0,1,421.65,252.9Z" style="fill:#DA983C"></path><path d="M423.38,252.34a.58.58,0,0,1-.8-.17.59.59,0,0,1,.17-.8.58.58,0,0,1,.8.17A.57.57,0,0,1,423.38,252.34Z" style="fill:#DA983C"></path><path d="M424.78,253.1a.59.59,0,0,1-.8-.17.58.58,0,0,1,.18-.8.56.56,0,0,1,.79.17A.57.57,0,0,1,424.78,253.1Z" style="fill:#DA983C"></path><path d="M422.69,254.05a.58.58,0,1,1,.17-.8A.58.58,0,0,1,422.69,254.05Z" style="fill:#DA983C"></path><path d="M424.53,256.25a.57.57,0,0,1-.8-.17.58.58,0,0,1,.18-.8.57.57,0,0,1,.79.18A.56.56,0,0,1,424.53,256.25Z" style="fill:#DA983C"></path><path d="M422.29,257.14a.57.57,0,0,1-.8-.17.58.58,0,0,1,.17-.8.59.59,0,0,1,.8.17A.58.58,0,0,1,422.29,257.14Z" style="fill:#DA983C"></path><path d="M419,257.13a.58.58,0,0,1-.8-.17.59.59,0,0,1,.17-.8.58.58,0,1,1,.63,1Z" style="fill:#DA983C"></path><path d="M426,255.44a.59.59,0,0,1-.8-.17.58.58,0,0,1,.18-.8.56.56,0,0,1,.79.17A.57.57,0,0,1,426,255.44Z" style="fill:#DA983C"></path><path d="M424.87,251.44a.58.58,0,0,1-.8-.18.58.58,0,0,1,1-.62A.58.58,0,0,1,424.87,251.44Z" style="fill:#DA983C"></path><path d="M424.53,254.58a.59.59,0,0,1-.8-.17.58.58,0,0,1,.18-.8.56.56,0,0,1,.79.17A.57.57,0,0,1,424.53,254.58Z" style="fill:#DA983C"></path><path d="M426.34,253.84a.58.58,0,0,1-.8-.17.57.57,0,0,1,.17-.8.58.58,0,0,1,.8.17A.59.59,0,0,1,426.34,253.84Z" style="fill:#DA983C"></path><path d="M426.75,250.86a.58.58,0,0,1-.8-.18.56.56,0,0,1,.17-.79.57.57,0,0,1,.8.17A.59.59,0,0,1,426.75,250.86Z" style="fill:#DA983C"></path><path d="M427.82,252.61a.58.58,0,1,1,.17-.8A.58.58,0,0,1,427.82,252.61Z" style="fill:#DA983C"></path><path d="M428.49,251a.58.58,0,0,1-.8-.17.58.58,0,0,1,1-.63A.57.57,0,0,1,428.49,251Z" style="fill:#DA983C"></path><path d="M426.22,252.42a.57.57,0,0,1-.79-.18.56.56,0,0,1,.17-.79.57.57,0,0,1,.8.17A.58.58,0,0,1,426.22,252.42Z" style="fill:#DA983C"></path><path d="M420.49,254.26a.58.58,0,0,1-.79-.17.57.57,0,0,1,.17-.8.58.58,0,1,1,.62,1Z" style="fill:#DA983C"></path><path d="M419.49,255.75a.59.59,0,0,1-.8-.17.58.58,0,0,1,.18-.8.56.56,0,0,1,.79.17A.57.57,0,0,1,419.49,255.75Z" style="fill:#DA983C"></path><path d="M421.34,255.79a.56.56,0,0,1-.79-.17.57.57,0,0,1,.17-.8.59.59,0,0,1,.8.17A.58.58,0,0,1,421.34,255.79Z" style="fill:#DA983C"></path><path d="M420.77,257.16a.58.58,0,1,1,.18-.8A.58.58,0,0,1,420.77,257.16Z" style="fill:#DA983C"></path><path d="M423,255.54a.58.58,0,0,1-.63-1,.58.58,0,0,1,.63,1Z" style="fill:#DA983C"></path><path d="M397.52,280.86c.38-.83,7.27-3.38,11.3-5.33l10.21-5c.71-.34,1.51-.84,1.47-1.66a2.55,2.55,0,0,0-.95-1.53l-19.23-18.84c-4.93,8-7.18,19.88-7,28.82l-5.8,9,8.34,7.43S395.65,284.9,397.52,280.86Z" style="fill:#ebebeb"></path><path d="M440,241.16a1.64,1.64,0,0,0-.07-1.48c-.28-.47-.82-.71-1.18-1.12s-.5-.93-.84-1.33a2.19,2.19,0,0,0-2.39-.51,3.62,3.62,0,0,0-1.83,1.77,10.62,10.62,0,0,0-.82,2.46l.27,3.46c2.09-.32,4.29-.7,5.91-2A3.08,3.08,0,0,0,440,241.16Z" style="fill:#DA983C"></path><path d="M435,250.18a10.54,10.54,0,0,0,1.95,1.71,2.66,2.66,0,0,0,2.48.26,2,2,0,0,0,.71-2.81c.55-.38,1.12-1,1-1.61s-.95-1-1.66-1.21a21.73,21.73,0,0,0-4.82-.55l-1.81,2.78A5.28,5.28,0,0,1,435,250.18Z" style="fill:#DA983C"></path><g style="opacity:0.30000000000000004"><path d="M440,241.16a1.64,1.64,0,0,0-.07-1.48c-.28-.47-.82-.71-1.18-1.12s-.5-.93-.84-1.33a2.19,2.19,0,0,0-2.39-.51,3.62,3.62,0,0,0-1.83,1.77,10.62,10.62,0,0,0-.82,2.46l.27,3.46c2.09-.32,4.29-.7,5.91-2A3.08,3.08,0,0,0,440,241.16Z"></path></g><g style="opacity:0.30000000000000004"><path d="M435,250.18a10.54,10.54,0,0,0,1.95,1.71,2.66,2.66,0,0,0,2.48.26,2,2,0,0,0,.71-2.81c.55-.38,1.12-1,1-1.61s-.95-1-1.66-1.21a21.73,21.73,0,0,0-4.82-.55l-1.81,2.78A5.28,5.28,0,0,1,435,250.18Z"></path></g><path d="M435.33,241.06a3.84,3.84,0,0,0,1.63-2.25,2.14,2.14,0,0,0-.54-1.65,2.72,2.72,0,0,0-1.54-.85,3.48,3.48,0,0,1-1.75-.5c-.32-.3-.44-.75-.76-1a1.39,1.39,0,0,0-1.38-.18,2.85,2.85,0,0,0-1.13.88,8.57,8.57,0,0,0-1.86,4.76,18.29,18.29,0,0,0,.36,5.16l.44,1.09Z" style="fill:#DA983C"></path><path d="M429.32,247.84a16.33,16.33,0,0,0,1.79,4.21,7.59,7.59,0,0,0,3.37,3,2.73,2.73,0,0,0,1.25.24,1.22,1.22,0,0,0,1-.7c.14-.35.05-.76.18-1.12s.75-.76,1.18-1.1a2.36,2.36,0,0,0,.87-1.29,1.86,1.86,0,0,0-.24-1.52,3.44,3.44,0,0,0-2.18-1.11l-7.32-1.65" style="fill:#DA983C"></path><path d="M429.39,246.78a23.4,23.4,0,0,0,6.9,1.63,6.27,6.27,0,0,0,3.49-.47,1.81,1.81,0,0,0,1.07-1.39c0-1-1.18-1.71-1.27-2.72-.05-.55.25-1.09.18-1.64a1.8,1.8,0,0,0-1.15-1.28,4.11,4.11,0,0,0-2.83,0,8.91,8.91,0,0,0-2.53,1.38,21.11,21.11,0,0,0-4.25,4.14" style="fill:#DA983C"></path><path d="M428.19,246.57a6.47,6.47,0,0,1-.41-1.79.88.88,0,0,1,0-.36.33.33,0,0,1,.26-.22c.16,0,.28.15.34.3a1.46,1.46,0,0,0,.18.45.81.81,0,0,0,.24-.33c.07-.12.19-.24.32-.21a.25.25,0,0,1,.17.21.68.68,0,0,1,0,.28,8.62,8.62,0,0,1-.33.93,1.63,1.63,0,0,1,.83-.46.43.43,0,0,1,.4.06.35.35,0,0,1,0,.41,1,1,0,0,1-.33.3,1.36,1.36,0,0,1,.71.44.35.35,0,0,1,.1.29.29.29,0,0,1-.28.21,1.53,1.53,0,0,1-.36-.07.6.6,0,0,0-.37,0,3.66,3.66,0,0,1,.42.68.42.42,0,0,1,.05.37.31.31,0,0,1-.41.07.91.91,0,0,1-.29-.35,2.16,2.16,0,0,1,.14.61.28.28,0,0,1,0,.22.23.23,0,0,1-.26,0,.67.67,0,0,1-.2-.21,10.24,10.24,0,0,1-1.11-2.34" style="fill:#263238"></path><path d="M428.51,246.37l.05-.07.15-.22c.13-.19.34-.45.6-.76a12.64,12.64,0,0,1,1-1.06,17.41,17.41,0,0,1,1.31-1.18,16.14,16.14,0,0,1,1.44-1,13.71,13.71,0,0,1,1.25-.72c.36-.19.66-.33.88-.42l.24-.1.09,0-.08.05-.24.11c-.21.1-.5.25-.86.45s-.78.44-1.23.73-.94.64-1.42,1-.93.79-1.32,1.16-.72.73-1,1-.48.56-.62.74l-.17.21S428.51,246.38,428.51,246.37Z" style="fill:#263238"></path><path d="M428.82,246.21s0,0,.09,0l.24.1.9.34c.77.28,1.83.64,3,1a31.55,31.55,0,0,0,3.11.64l.95.15.26,0,.09,0h-.09l-.26,0c-.23,0-.55-.05-1-.11a27.3,27.3,0,0,1-6.15-1.6c-.38-.15-.68-.27-.89-.37l-.24-.11Z" style="fill:#263238"></path><path d="M433.32,250.47l-.21-.1a5.89,5.89,0,0,1-.57-.33,11.58,11.58,0,0,1-1.73-1.3,11.74,11.74,0,0,1-1.47-1.58c-.17-.22-.3-.41-.39-.54a.91.91,0,0,1-.12-.2,1,1,0,0,1,.15.18c.1.13.23.3.41.51a15.35,15.35,0,0,0,1.48,1.56,14.89,14.89,0,0,0,1.7,1.31l.55.35C433.26,250.41,433.33,250.46,433.32,250.47Z" style="fill:#263238"></path><path d="M428.55,246.65a.92.92,0,0,1,0-.27c0-.17,0-.42.05-.73.06-.61.17-1.46.35-2.38a23.74,23.74,0,0,1,.58-2.35c.09-.29.16-.53.22-.69s.09-.26.1-.25a.88.88,0,0,1-.06.26c-.05.18-.12.42-.19.7-.17.6-.37,1.42-.55,2.34s-.3,1.77-.38,2.38c0,.29-.06.54-.08.73S428.55,246.65,428.55,246.65Z" style="fill:#263238"></path><path d="M434.64,245.7s-1.35.27-3,.55-3,.48-3,.46,1.35-.28,3-.56S434.64,245.67,434.64,245.7Z" style="fill:#263238"></path><path d="M428.79,245.61c0,.08-1.23.52-3.2,1.36a54.42,54.42,0,0,0-7.38,3.84,55.17,55.17,0,0,0-6.68,5c-1.61,1.41-2.54,2.34-2.61,2.29a3.65,3.65,0,0,1,.58-.74c.4-.45,1-1.08,1.79-1.82a42.9,42.9,0,0,1,6.65-5.13,43.78,43.78,0,0,1,7.52-3.75c1-.37,1.83-.65,2.41-.81A3.48,3.48,0,0,1,428.79,245.61Z" style="fill:#263238"></path><path d="M397.51,281a5.57,5.57,0,0,1-2.52-1.29c-1.26-.94-2-2-1.93-2.05a12.74,12.74,0,0,1,2.25,1.64A13,13,0,0,1,397.51,281Z" style="fill:#263238"></path><path d="M397.38,282.17a5.49,5.49,0,0,1-2.83-1.26,5.55,5.55,0,0,1-2.11-2.28,29.65,29.65,0,0,1,2.41,1.86C396.19,281.46,397.43,282,397.38,282.17Z" style="fill:#263238"></path><path d="M419.2,267.6a4,4,0,0,1-.89.55l-2.5,1.33c-2.11,1.11-5,2.67-8.18,4.46s-6,3.5-8,4.74l-2.42,1.47a4,4,0,0,1-.92.48,4,4,0,0,1,.81-.65c.54-.4,1.33-1,2.33-1.61,2-1.32,4.8-3.07,8-4.88s6.12-3.31,8.27-4.34c1.08-.52,2-.92,2.58-1.18A4,4,0,0,1,419.2,267.6Z" style="fill:#263238"></path><path d="M393.65,292.05a16.51,16.51,0,0,1,.65-5.21,16.84,16.84,0,0,1,1.76-5c.14.05-.59,2.28-1.25,5.08S393.8,292.07,393.65,292.05Z" style="fill:#263238"></path><path d="M397.5,281.09a3.81,3.81,0,0,1,1.18-.54,11.3,11.3,0,0,1,3.49-.63c.38,0,.77,0,1.18,0a2.85,2.85,0,0,1,1.31.33,1.17,1.17,0,0,1,.53.6,1.11,1.11,0,0,1-.06.84,2.35,2.35,0,0,1-1.21,1,4.94,4.94,0,0,1-3.18.08,13.45,13.45,0,0,1-1.57-.57,5.69,5.69,0,0,1-1.55-.82,2.56,2.56,0,0,1-.64-1.71,11.55,11.55,0,0,1,0-1.66,10.44,10.44,0,0,1,.18-1.6,5.84,5.84,0,0,1,.41-1.51,1.6,1.6,0,0,1,1.29-1,1.36,1.36,0,0,1,1.26.85,4.34,4.34,0,0,1,.21,2.51,5.65,5.65,0,0,1-1.7,3.12,4.76,4.76,0,0,1-.78.58c-.19.1-.3.15-.31.13s.39-.26.95-.86a5.68,5.68,0,0,0,1.48-3,4.09,4.09,0,0,0-.24-2.25.92.92,0,0,0-.84-.6,1.13,1.13,0,0,0-.88.72,9.43,9.43,0,0,0-.52,2.92,12.11,12.11,0,0,0,0,1.59A2,2,0,0,0,398,281c1.76,1,4,2,5.76,1.24a1.92,1.92,0,0,0,1-.76.63.63,0,0,0-.28-.87,2.53,2.53,0,0,0-1.12-.3c-.4,0-.78-.06-1.15-.06A15.77,15.77,0,0,0,397.5,281.09Z" style="fill:#263238"></path></g><g id="freepik--speech-bubble--inject-13"><path d="M150.28,181.93l6.18-5.87a25.51,25.51,0,1,1,.36,9.12h0Z" style="fill:#fafafa"></path><path d="M150.28,181.93l.41.22,1.24.63,4.86,2.47a.06.06,0,0,0,.08,0,0,0,0,0,0,0,0v0h-.12a25.37,25.37,0,0,0,5.53,11.13,24,24,0,0,0,2.81,2.8c.52.45,1.1.85,1.66,1.28a16.35,16.35,0,0,0,1.82,1.2,25.47,25.47,0,0,0,19,2.93,25.73,25.73,0,0,0,10-4.84,26.23,26.23,0,0,0,7.27-9.35,23.71,23.71,0,0,0,1.12-2.87,15.07,15.07,0,0,0,.41-1.5c.12-.51.28-1,.35-1.52a25.23,25.23,0,0,0,.38-3.13c0-.53.06-1,.07-1.58s-.05-1.06-.07-1.6a25.61,25.61,0,0,0-11.59-19.86,25.57,25.57,0,0,0-28.61.52,28,28,0,0,0-3.25,2.69,35,35,0,0,0-2.58,3,25.37,25.37,0,0,0-4.73,11.58l0,0-4.59,4.42-1.16,1.12-.38.38.42-.38,1.19-1.12c1.06-1,2.6-2.43,4.62-4.32,0,0,0,0,0,0a25.29,25.29,0,0,1,4.76-11.48,32.75,32.75,0,0,1,2.57-2.94,27.56,27.56,0,0,1,3.23-2.66,25.31,25.31,0,0,1,18.24-4.28,25.51,25.51,0,0,1,10.07,3.81,25.36,25.36,0,0,1,11.44,19.64c0,.53,0,1.05.07,1.58s0,1-.07,1.56a26.33,26.33,0,0,1-.37,3.09c-.07.51-.23,1-.35,1.5a12.58,12.58,0,0,1-.4,1.49,23.08,23.08,0,0,1-1.11,2.83,25.82,25.82,0,0,1-7.17,9.25,25.33,25.33,0,0,1-28.74,1.94,15.23,15.23,0,0,1-1.81-1.18c-.55-.43-1.13-.82-1.65-1.26a24.47,24.47,0,0,1-2.8-2.77,25.5,25.5,0,0,1-5.56-11,.06.06,0,0,0-.08,0,.06.06,0,0,0-.05.06h0l.09-.05L152,182.76l-1.27-.62Z" style="fill:#263238"></path><path d="M184.64,173.71l9.34.72a6,6,0,0,0-5.53-3.32c-3.35.09-4.27,1.32-4.48,1.7a6.53,6.53,0,0,0,.77-4.61,5.09,5.09,0,0,0-2.5-3.79l.68,8.41a4.69,4.69,0,0,0-4.15-3.48c-3.32-.17-6.41,2.65-6.41,2.65l10.17,1.44c-.22,0-9.24-1.72-10.17,6.53l9.07-5.09a23.6,23.6,0,0,0-4.46,8.64,21.22,21.22,0,0,0-.69,7.51H180s-.4-6.37,1-10.62a28.85,28.85,0,0,1,2.32-5.09l4.27,6.55a6.13,6.13,0,0,0,.43-5.27A4.38,4.38,0,0,0,184.64,173.71Z" style="fill:#263238"></path><path d="M187.64,190.9a9.71,9.71,0,0,0-2.42-1.15,4.12,4.12,0,0,0-2.69.32,17.84,17.84,0,0,1-3.43,1.73,3.56,3.56,0,0,1-2.2-.22,12.15,12.15,0,0,1-1.63-.91,4.36,4.36,0,0,0-2.63-.82,8.2,8.2,0,0,0-2.54.8c0-.05.08-.31.47-.65a3.93,3.93,0,0,1,2-.88,4.37,4.37,0,0,1,1.56,0,6.46,6.46,0,0,1,1.61.67c1,.56,2,1.23,3.14.94a24.89,24.89,0,0,0,3.26-1.58,4.57,4.57,0,0,1,3.27-.16,4.13,4.13,0,0,1,1.84,1.16C187.59,190.59,187.69,190.86,187.64,190.9Z" style="fill:#263238"></path><path d="M187.64,193.4a9.31,9.31,0,0,0-2.42-1.15,4.12,4.12,0,0,0-2.69.32,17.31,17.31,0,0,1-3.43,1.72,3.49,3.49,0,0,1-2.2-.22,13.4,13.4,0,0,1-1.63-.9,4.29,4.29,0,0,0-2.63-.82,8.05,8.05,0,0,0-2.54.79s.08-.3.47-.64a4,4,0,0,1,2-.89,4.38,4.38,0,0,1,1.56.06,6.43,6.43,0,0,1,1.61.66c1,.57,2,1.23,3.14.94a23.68,23.68,0,0,0,3.26-1.58,4.61,4.61,0,0,1,3.27-.15,4.13,4.13,0,0,1,1.84,1.16C187.59,193.09,187.69,193.36,187.64,193.4Z" style="fill:#263238"></path></g><g id="freepik--Characters--inject-13"><path d="M330.9,260.53c.48-6.07.73-12.38-1.54-18-3.74-9.32-29.68-17.88-39.46-15.65l-8.76,37.37c-1.09,5.5-2.19,11.08-1.87,16.68s2.22,11.33,6.31,15.17c3.93,3.7,9.35,5.26,14.55,6.69,6.69,1.85,14.42,3.54,20.11-.43,4.95-3.46,6.51-10,7.5-16Q329.89,273.54,330.9,260.53Z" style="fill:#263238"></path><path d="M307.83,233.91a4.75,4.75,0,0,1,.76.06c.5.06,1.23.16,2.17.31a28.91,28.91,0,0,1,3.38.73,17.23,17.23,0,0,1,4.24,1.81,10.1,10.1,0,0,1,5.06,10.27c-.39,4.48-.94,9.36-1.55,14.51a189.87,189.87,0,0,1-4.71,26.08c-.86,3.28-1.72,5.89-2.34,7.68-.31.86-.57,1.54-.76,2.05a3.48,3.48,0,0,1-.3.7,7.11,7.11,0,0,1,.2-.73l.67-2.08c.56-1.81,1.37-4.43,2.18-7.72a209.35,209.35,0,0,0,4.55-26.05c.6-5.12,1.17-10,1.58-14.47a9.74,9.74,0,0,0-4.78-9.93,16.85,16.85,0,0,0-4.12-1.84,32.17,32.17,0,0,0-3.34-.81l-2.14-.4A3.55,3.55,0,0,1,307.83,233.91Z" style="fill:#455a64"></path><path d="M304.65,252.51a6,6,0,0,1-.12,1.3c-.13.93-.3,2.11-.49,3.51-.43,3-1,7.05-1.6,11.58s-1.06,8.63-1.4,11.6c-.16,1.41-.3,2.59-.41,3.52a6.28,6.28,0,0,1-.22,1.29,6.48,6.48,0,0,1,0-1.3c0-.84.12-2.05.24-3.54.25-3,.67-7.11,1.25-11.64s1.23-8.62,1.75-11.57c.26-1.47.49-2.67.66-3.49A5.54,5.54,0,0,1,304.65,252.51Z" style="fill:#455a64"></path><path d="M255.2,222.23s-7.07,1.52-11.49,10.67c-2.34,4.85-13.26,30.7-16.26,32.9s-38.84,37.07-38.84,37.07l7.44,8.11s37.48-28.59,41.54-33.56,21.28-34.72,21.28-34.72Z" style="fill:#ffbf9d"></path><path d="M460,405.39c-2.53-6.24-9-10.22-15.67-11.37-2.61-.45-5.31-.53-7.81-1.4s-4.89-2.73-5.4-5.34c-.45-2.34.68-4.7.61-7.08-.14-4.69-4.73-7.95-9.14-9.55s-9.33-2.46-12.71-5.7c-4.85-4.66-4.95-12.73-9.69-17.49-3.17-3.19-7.9-4.31-12.39-4.44s-9,.6-13.47.48c-10.4-.29-20.25-5.18-28.29-11.78a130.53,130.53,0,0,1-20.93-21.23l31.47,86.65c15,19.72,39.05,30.94,63.47,34.95,9.66,1.58,20.05,2.05,28.77-2.4S463.68,414.47,460,405.39Z" style="fill:#f5f5f5"></path><path d="M469.17,429.48c-5-.75-10.35-.16-14.91-2.35-9.47-4.55-10.26-17.75-16.84-25.94a21.58,21.58,0,0,0-19.92-7.64c-2.24.37-4.54,1.1-6.73.48-2.57-.72-4.31-3.17-5.17-5.7s-1-5.23-1.62-7.83c-2.83-12.12-14.54-19.94-26-24.83s-24-8.37-33-17c-11.41-10.95-15.8-29.07-29.93-36.17L343.22,370l50.62,34.29,45.36,29.39,23,13.73c3.71.27,7.55.52,11.05-.72s6.61-4.42,6.55-8.14C479.69,433.47,474.17,430.24,469.17,429.48Z" style="fill:#ebebeb"></path><path d="M249.25,446.07l.38.95S236,460.14,237,463.26l32.29-13.44-4.83-10.39A20.32,20.32,0,0,1,249.25,446.07Z" style="fill:#455a64"></path><g style="opacity:0.6000000000000001"><path d="M262.63,444.17a1.4,1.4,0,0,1,1.53,1.1,1.38,1.38,0,0,1-1.11,1.52,1.48,1.48,0,0,1-1.61-1.17,1.44,1.44,0,0,1,1.33-1.46" style="fill:#fff"></path></g><g style="opacity:0.6000000000000001"><path d="M269.33,449.82l-1.16-2.5-30.52,13.8s-1.19,1.21-.61,2.14Z" style="fill:#fff"></path></g><path d="M249.55,447.16c.07.15.89-.11,1.87.07s1.67.65,1.79.53-.49-.92-1.68-1.11S249.46,447,249.55,447.16Z" style="fill:#263238"></path><path d="M246.74,449.94c0,.17.82.15,1.63.58s1.25,1.06,1.4,1-.11-1-1.12-1.51S246.68,449.79,246.74,449.94Z" style="fill:#263238"></path><path d="M246.47,454.73c.16,0,.06-.89-.7-1.57s-1.64-.71-1.65-.56.63.42,1.25,1S246.31,454.78,246.47,454.73Z" style="fill:#263238"></path><path d="M256.74,291.94S245.22,316,236.56,340c0,0-11.64,26.42-13.23,34s-1,10.38-.43,12.8c7.47,31.64,18.5,64.57,18.5,64.57,14.08,5.06,22.8-1.37,34.27.64,24.17,4.23,4.44,13,91.08,5,21.18-2,32.83,2.39,41.73,2.26,12.21-.18,41.29-2.23,55.8-4,25.08-3,12.06-8.45-7.77-16.07-12.95-5-16-12.19-33.2-29.07s-24.42-32.28-35.51-41.2-28.54-10.42-44.33-23.8-22.42-41.07-34.72-52.2-19.53-13.18-19.53-13.18Z" style="fill:#e0e0e0"></path><path d="M260.59,303.14s-.37.64-1,1.78-1.52,2.85-2.56,5c-2.1,4.21-4.9,10.09-8,16.57s-6,12.34-8.14,16.52c-1.09,2.09-2,3.76-2.71,4.89-.33.57-.66,1-.85,1.26a2,2,0,0,1-.33.42s.37-.64,1-1.78,1.51-2.85,2.56-5c2.09-4.21,4.89-10.09,8-16.57s6-12.34,8.15-16.52c1.09-2.09,2-3.76,2.71-4.89a12,12,0,0,1,.85-1.26Q260.56,303.13,260.59,303.14Z" style="fill:#263238"></path><path d="M316.88,322.18a3.89,3.89,0,0,1-.41-.49,14.11,14.11,0,0,1-1-1.52,49.68,49.68,0,0,1-2.91-6.06c-1.12-2.57-2.51-5.75-5.25-8.26a9.34,9.34,0,0,0-5.06-2.49,9.82,9.82,0,0,0-5.92,1.27,16,16,0,0,0-4.69,4,24.83,24.83,0,0,0-3.12,4.91,66.18,66.18,0,0,0-3.47,9.29c-.84,2.71-1.54,4.9-2.1,6.38-.27.75-.52,1.32-.68,1.7a3.13,3.13,0,0,1-.27.58,2.43,2.43,0,0,1,.17-.61c.15-.45.35-1,.59-1.73.5-1.51,1.14-3.7,1.94-6.43a63.17,63.17,0,0,1,3.39-9.39,24.42,24.42,0,0,1,3.16-5,16.29,16.29,0,0,1,4.84-4.15,10.28,10.28,0,0,1,6.23-1.32,9.83,9.83,0,0,1,5.31,2.64c2.83,2.63,4.18,5.88,5.27,8.47a56.07,56.07,0,0,0,2.75,6.11C316.38,321.46,316.92,322.15,316.88,322.18Z" style="fill:#455a64"></path><path d="M296.29,313.11a8.3,8.3,0,0,1-.27,1.56c-.21,1-.5,2.43-.84,4.21-.68,3.57-1.48,8.52-2,14s-.64,10.52-.63,14.15c0,1.82,0,3.28.05,4.3a10.23,10.23,0,0,1,0,1.58,8.55,8.55,0,0,1-.18-1.57c-.09-1-.16-2.49-.22-4.3a122.3,122.3,0,0,1,.48-14.21,119.61,119.61,0,0,1,2.16-14.05c.39-1.78.73-3.21,1-4.19A9.33,9.33,0,0,1,296.29,313.11Z" style="fill:#455a64"></path><g style="opacity:0.2"><path d="M315.89,312.06a14.81,14.81,0,0,0-3.2-7.52c-3.43-4-9.5-5-14.42-3.19s-8.72,5.91-11.06,10.58-3.39,9.88-4.14,15.06l5.05-13.24c2.38-5.1,6.64-8.88,10.88-9.59a11.72,11.72,0,0,1,11.27,4.75c2.45,3.54,2.86,8.34,5.85,11.43A44,44,0,0,0,315.89,312.06Z"></path></g><path d="M262.16,389.51c-.14-.05,3-9.56,7-21.24s7.36-21.13,7.5-21.08-3,9.56-7,21.25S262.29,389.56,262.16,389.51Z" style="fill:#455a64"></path><path d="M373,421.52a4.52,4.52,0,0,1-.68-.46l-1.89-1.39c-.83-.61-1.82-1.37-2.94-2.28s-2.44-1.93-3.81-3.13-2.92-2.48-4.49-3.94-3.25-3-5-4.69c-3.43-3.4-7.08-7.26-10.71-11.49s-6.84-8.47-9.65-12.4c-1.38-2-2.7-3.86-3.85-5.67s-2.24-3.49-3.18-5.06-1.76-3-2.49-4.25-1.31-2.36-1.78-3.27l-1.08-2.08a6.32,6.32,0,0,1-.35-.75,4,4,0,0,1,.44.7l1.17,2c.49.89,1.1,2,1.86,3.21s1.55,2.68,2.54,4.21,2,3.24,3.23,5,2.5,3.66,3.88,5.63c2.82,3.9,6.06,8.1,9.66,12.34s7.25,8.08,10.65,11.48c1.73,1.68,3.35,3.29,4.95,4.73s3.06,2.78,4.44,4,2.64,2.25,3.75,3.18,2.08,1.72,2.88,2.35l1.83,1.47A5.09,5.09,0,0,1,373,421.52Z" style="fill:#455a64"></path><path d="M463.49,444a1.65,1.65,0,0,1-.5.06l-1.42.08c-1.24.06-3,.1-5.26.11a166,166,0,0,1-34.43-3.66c-2.17-.47-3.92-.88-5.12-1.21l-1.38-.37a1.64,1.64,0,0,1-.47-.17,2.07,2.07,0,0,1,.5.06l1.4.29c1.21.26,3,.62,5.14,1,4.35.85,10.38,1.86,17.1,2.57s12.84,1,17.27,1.08c2.21,0,4,.06,5.24.06l1.43,0A1.77,1.77,0,0,1,463.49,444Z" style="fill:#455a64"></path><path d="M284.27,420.3a2.15,2.15,0,0,1-.4-.29l-1.08-.91c-.94-.79-2.26-2-3.85-3.49a141.67,141.67,0,0,1-21.8-26.38c-1.18-1.85-2.1-3.37-2.7-4.43l-.69-1.24a2.08,2.08,0,0,1-.21-.45s.12.13.3.4l.77,1.18c.65,1,1.62,2.52,2.84,4.34a165.81,165.81,0,0,0,21.74,26.32c1.56,1.53,2.84,2.76,3.73,3.6l1,1C284.17,420.16,284.28,420.28,284.27,420.3Z" style="fill:#455a64"></path><g style="opacity:0.2"><path d="M295.26,318.51a94.43,94.43,0,0,0,.55,45.51,76.64,76.64,0,0,0,24,38.39c-15.49-26-23.38-53.64-24.55-83.9"></path></g><g style="opacity:0.2"><path d="M333.24,379.88l5.55,7.44c20.61,31,57.91,52,95.08,54C396.58,429,360.66,408,333.24,379.88Z"></path></g><path d="M471.19,444.56l-.59.15-1.74.4-6.69,1.46c-5.82,1.23-14.25,3-24.81,4.37A145,145,0,0,1,420,452.13a156.43,156.43,0,0,1-19.94-1.32c-7-.8-14.3-1.81-21.93-2.14a87.06,87.06,0,0,0-11.62.23,112.11,112.11,0,0,0-11.83,1.87c-7.94,1.61-15.67,3.55-23.36,4.06a51.59,51.59,0,0,1-11.28-.41,68.66,68.66,0,0,1-10.5-2.67c-6.68-2.23-12.85-4.82-18.88-6.43a112.13,112.13,0,0,0-17-3.4,115,115,0,0,0-25.1-.29q-2.22.21-3.93.45c-1.13.14-2.09.28-2.86.41l-1.76.27-.6.08a86.86,86.86,0,0,1,9.13-1.41,112.44,112.44,0,0,1,25.16.13,111.17,111.17,0,0,1,17.08,3.34c6.07,1.6,12.26,4.19,18.92,6.39a67.63,67.63,0,0,0,10.42,2.64,50.67,50.67,0,0,0,11.18.39c7.62-.51,15.33-2.44,23.28-4.06a112.43,112.43,0,0,1,11.89-1.88,88.15,88.15,0,0,1,11.69-.22c7.67.34,15,1.36,22,2.18A157.79,157.79,0,0,0,420,451.7a145.23,145.23,0,0,0,17.33-1.13c10.54-1.29,19-3,24.81-4.19l6.71-1.37,1.75-.35C471,444.58,471.19,444.56,471.19,444.56Z" style="fill:#fff"></path><path d="M308.15,442.45a4.6,4.6,0,0,1-.68-.31l-1.9-.95-1.36-.7c-.5-.24-1.06-.48-1.66-.76-1.19-.53-2.53-1.19-4.07-1.77l-2.4-.95c-.84-.33-1.73-.61-2.64-.93-1.82-.67-3.82-1.21-5.9-1.81a100,100,0,0,0-13.89-2.65,101.66,101.66,0,0,0-14.13-.53c-2.17.12-4.24.2-6.16.45-1,.11-1.89.17-2.78.31l-2.55.39c-1.63.22-3.08.56-4.37.81l-1.78.37-1.49.38-2.06.5a3.58,3.58,0,0,1-.73.14,4.7,4.7,0,0,1,.7-.24l2-.6,1.48-.42c.54-.14,1.14-.26,1.78-.41,1.28-.28,2.73-.65,4.37-.89l2.56-.43c.89-.15,1.82-.22,2.79-.34,1.93-.27,4-.36,6.18-.5a90.79,90.79,0,0,1,28.16,3.19c2.1.63,4.1,1.18,5.92,1.87.91.34,1.81.62,2.64,1l2.4,1c1.54.6,2.87,1.29,4.06,1.85.59.29,1.14.54,1.64.8l1.35.74,1.85,1A3.9,3.9,0,0,1,308.15,442.45Z" style="fill:#fff"></path><path d="M435.34,442.14a1.58,1.58,0,0,1-.3.11l-.89.26c-.78.25-1.95.57-3.47.93a88.28,88.28,0,0,1-13,2.13,91.17,91.17,0,0,1-19.57-.35,99.93,99.93,0,0,1-11.38-2.13c-3.9-.92-7.91-2-12.1-2.55a34.18,34.18,0,0,0-12.25.25c-3.9.83-7.53,2.16-11.07,3.21a57.62,57.62,0,0,1-19.39,2.41,56.87,56.87,0,0,1-13-2.14c-1.5-.44-2.65-.82-3.41-1.12l-.87-.33c-.2-.08-.3-.12-.29-.13l.31.08.88.28c.78.27,1.94.61,3.43,1a59.83,59.83,0,0,0,13,2,58,58,0,0,0,19.24-2.5c3.52-1.05,7.16-2.4,11.11-3.25a34.67,34.67,0,0,1,12.42-.27c4.23.6,8.26,1.65,12.15,2.58a104.18,104.18,0,0,0,11.32,2.15,94.73,94.73,0,0,0,32.49-1.51c1.52-.33,2.69-.62,3.48-.83l.91-.22Z" style="fill:#fff"></path><path d="M452,437.65a11.52,11.52,0,0,1-6.45,6.49c-.08-.14,1.75-1.14,3.53-2.95S451.88,437.57,452,437.65Z" style="fill:#fff"></path><g style="opacity:0.2"><path d="M340.33,448.55c-9.44-8.95-20.18-16.4-30.26-24.63s-19.67-17.44-25.92-28.85c-7.29-13.34-9.57-29-8.7-44.18-4.53,13.49-13.43,36.69-14.11,43-.4,3.81,14.05,17.33,21.07,24.49s13.07,13.83,21.38,19.44h0C312.43,445.08,326.25,448.28,340.33,448.55Z"></path></g><path d="M295.9,198.89c.43,2.51,4.49,3.38,6.83,3.21,1.8-.12,3.5-1,5.3-1a5.51,5.51,0,0,1,5.1,4.07,2.73,2.73,0,0,0-.36-3.53,5.54,5.54,0,0,0-3.54-1.42c-1.3-.11-2.61,0-3.9-.21a4.16,4.16,0,0,1-2.45-1.08,2.09,2.09,0,0,1-.39-2.49" style="fill:#263238"></path><path d="M308.75,182.12a8.61,8.61,0,0,0-6.55-3.65c-2.59,0-7,1.41-7.48,4l.85,15.72c.12,1.62,2.1,2.39,3.74,2.42a11.52,11.52,0,0,0,9.44-18.45Z" style="fill:#263238"></path><path d="M297.47,185.05a16,16,0,0,0-3-9.2c-2.69-3.87-5.63-5.42-8.55-7A21,21,0,0,0,275.54,166c-4.09.18-8.27.76-11.86,2.73-5.83,3.2-7.89,12.24-8.78,18.83s-.92,10.79.85,17.2l26.83,6.4A17.09,17.09,0,0,0,296.11,198C297,193.54,297.76,190.59,297.47,185.05Z" style="fill:#263238"></path><path d="M287.26,177.58l-11.95-7.2-1.37.94c-7.52-1.22-14.92,3.4-16.83,12.69-1.38,6.72-2.68,13.56-2.43,18.72a13.7,13.7,0,0,0,9.71,12.76s-.39,3.86-.75,7.57l14.08,12.27c1.23-2.9,6.29-11.78,6.29-11.78l6.06-42A3.61,3.61,0,0,0,287.26,177.58Z" style="fill:#ffbf9d"></path><path d="M271,193.63a1.32,1.32,0,0,0,1.12,1.46,1.26,1.26,0,0,0,1.48-1,1.33,1.33,0,0,0-1.12-1.46A1.25,1.25,0,0,0,271,193.63Z" style="fill:#263238"></path><path d="M258.45,191.91a1.32,1.32,0,0,0,1.12,1.46,1.27,1.27,0,0,0,1.48-1,1.31,1.31,0,0,0-1.12-1.46A1.25,1.25,0,0,0,258.45,191.91Z" style="fill:#263238"></path><path d="M258,186.9c.14.19,1.21-.44,2.62-.28s2.37,1,2.54.82-.05-.39-.46-.77a3.72,3.72,0,0,0-2-.87,3.43,3.43,0,0,0-2.11.44C258.13,186.52,258,186.82,258,186.9Z" style="fill:#263238"></path><path d="M272.18,189.32c.16.17,1.16-.56,2.58-.55s2.45.73,2.6.56-.08-.39-.54-.72a3.59,3.59,0,0,0-2.08-.66,3.5,3.5,0,0,0-2.06.65C272.25,188.93,272.1,189.24,272.18,189.32Z" style="fill:#263238"></path><path d="M265.66,198.71a8.92,8.92,0,0,0-2.24-.66c-.35-.08-.69-.19-.72-.44a1.82,1.82,0,0,1,.36-1c.43-.84.88-1.71,1.36-2.62,1.9-3.74,3.32-6.83,3.17-6.91a48.11,48.11,0,0,0-3.72,6.63l-1.32,2.65a2.06,2.06,0,0,0-.34,1.39.92.92,0,0,0,.53.59,2.34,2.34,0,0,0,.61.15A9.42,9.42,0,0,0,265.66,198.71Z" style="fill:#263238"></path><path d="M264.39,215.49a27.19,27.19,0,0,0,14-2.35s-4.15,7.11-14.26,5Z" style="fill:#ff9a6c"></path><path d="M265.89,202.17c.94-.47,2.21-1.26,3.08-1.07.6.13.49.87.8,1.41a1.06,1.06,0,0,1-.1,1.41,2.38,2.38,0,0,1-2.2.68c-.66-.26-.85-.91-1.35-1.41a1.6,1.6,0,0,1-.36-.46.48.48,0,0,1,.06-.52" style="fill:#ff9a6c"></path><path d="M271.73,182.73c.14.39,1.55.21,3.21.43s3,.67,3.23.33c.1-.17-.13-.53-.67-.91a5.65,5.65,0,0,0-4.91-.57C272,182.25,271.67,182.55,271.73,182.73Z" style="fill:#263238"></path><path d="M260.08,181.37c.21.35,1.22.12,2.38.23s2.14.45,2.4.14c.12-.15,0-.48-.4-.84a3.51,3.51,0,0,0-3.86-.3C260.15,180.89,260,181.2,260.08,181.37Z" style="fill:#263238"></path><path d="M287,199.29s-7.52,1.08-8.74-17.23C277.82,175.8,273,170,273,170l2.38-.32s13.48,6.24,13.69,6.46,2.39,7.87,2.39,7.87Z" style="fill:#263238"></path><path d="M285.31,198.35c.08-.76,1.16-2.45,1.92-2.49,2-.09,5.63.47,5.11,5.56-.71,7-7.56,4.81-7.55,4.61S285,201,285.31,198.35Z" style="fill:#ffbf9d"></path><path d="M287.19,203.61s.11.1.31.21a1.22,1.22,0,0,0,.9.11,3,3,0,0,0,1.67-2.55,4.11,4.11,0,0,0-.16-1.77,1.4,1.4,0,0,0-.82-1,.62.62,0,0,0-.75.25c-.11.19-.08.33-.12.34s-.14-.13-.05-.41a.75.75,0,0,1,.32-.41.92.92,0,0,1,.68-.11,1.71,1.71,0,0,1,1.16,1.21,4.16,4.16,0,0,1,.22,2c-.19,1.4-1,2.64-2.08,2.83a1.29,1.29,0,0,1-1.09-.3C287.18,203.78,287.16,203.62,287.19,203.61Z" style="fill:#ff9a6c"></path><path d="M295.93,178.67s.2.25.47.74a6.78,6.78,0,0,1,.45.93,13,13,0,0,1,.48,1.28,19.46,19.46,0,0,1,.79,3.47,25.53,25.53,0,0,1,.16,4.35,29.32,29.32,0,0,1-1.47,7.75,22,22,0,0,1-.86,2.22c-.24.52-.38.79-.42.78s.38-1.19.93-3.11a34.35,34.35,0,0,0,1.3-7.66,28.19,28.19,0,0,0-.12-4.27,21.89,21.89,0,0,0-.66-3.42C296.44,179.81,295.85,178.71,295.93,178.67Z" style="fill:#455a64"></path><path d="M278.43,184s.49.18,1.38.45a11.7,11.7,0,0,0,3.92.46,10.86,10.86,0,0,0,5.54-1.79,11.3,11.3,0,0,0,4.42-5.64l.37.31c-.62.33-1.28.67-2,1A14.57,14.57,0,0,1,288,180a8.7,8.7,0,0,1-4-.4,13,13,0,0,1-5.48-3.92,27.64,27.64,0,0,1-2.64-3.7,10.72,10.72,0,0,1-.82-1.45,9.37,9.37,0,0,1,1,1.34,35.57,35.57,0,0,0,2.74,3.56,12.76,12.76,0,0,0,5.37,3.71,8.16,8.16,0,0,0,3.8.35,13.89,13.89,0,0,0,4-1.23c.67-.3,1.32-.63,1.93-1l.59-.31-.22.63a11.59,11.59,0,0,1-4.65,5.85,11.28,11.28,0,0,1-9.78,1.13,7.71,7.71,0,0,1-1-.43A1.25,1.25,0,0,1,278.43,184Z" style="fill:#455a64"></path><path d="M290.47,207.15a2.36,2.36,0,1,1-2.32-2.4A2.36,2.36,0,0,1,290.47,207.15Z" style="fill:#fff"></path><path d="M290.47,207.15c-.05,0-.06-.21-.17-.56a2.31,2.31,0,0,0-.84-1.19,2.18,2.18,0,0,0-2-.3,2.13,2.13,0,0,0-.08,4,2.18,2.18,0,0,0,2-.23,2.26,2.26,0,0,0,.89-1.16c.12-.34.14-.55.19-.54a1,1,0,0,1,0,.6,2.36,2.36,0,0,1-.87,1.4,2.55,2.55,0,0,1-2.43.38,2.58,2.58,0,0,1,.09-4.88,2.53,2.53,0,0,1,2.41.46,2.32,2.32,0,0,1,.82,1.44A1,1,0,0,1,290.47,207.15Z" style="fill:#263238"></path><path d="M308.61,187.32c.61,1.1,1.38,2.33,2.63,2.53a4.67,4.67,0,0,0,2.52-.64,3.39,3.39,0,0,1,2.55-.37c.9.35,1.37,1.33,2.15,1.89a3.47,3.47,0,0,0,2.46.52,10.23,10.23,0,0,0,2.45-.71,1.87,1.87,0,0,1-.81,1.32,3.73,3.73,0,0,1-1.46.58,7.37,7.37,0,0,1-4.08-.35,10.72,10.72,0,0,0-2.36-.84,7.3,7.3,0,0,0-3.63.95,4.31,4.31,0,0,1-3.66.25" style="fill:#263238"></path><path d="M310,185.24a4.49,4.49,0,0,1-.69,2.27,10.52,10.52,0,0,1-4,4,20.7,20.7,0,0,1-5.34,2,9.51,9.51,0,0,1-2.32.42,11.74,11.74,0,0,1,2.22-.78A25.75,25.75,0,0,0,305,191.1a11.32,11.32,0,0,0,4-3.77C309.71,186.11,309.88,185.22,310,185.24Z" style="fill:#455a64"></path><path d="M307.74,189a18.61,18.61,0,0,0-3-5.65,18.25,18.25,0,0,0-5.07-3.89,4.82,4.82,0,0,1,1.83.64,12.08,12.08,0,0,1,5.91,7A5,5,0,0,1,307.74,189Z" style="fill:#455a64"></path><path d="M293.15,203c-.78-1.14-1.47-2.48-2.73-3-.73-.32-1.57-.33-2.32-.62a4.52,4.52,0,0,1-2.57-3.56,13.32,13.32,0,0,1,.33-4.57l-6.68-4.45c-.25,2.22,1.22,8,1.86,10.17s2.4,4.11,4.63,4.27a9.76,9.76,0,0,1,2.1.14c1.27.4,1.89,1.8,2.81,2.76a5.05,5.05,0,0,0,5.94.87C295.17,205.28,293.93,204.16,293.15,203Z" style="fill:#263238"></path><path d="M267,205a11.42,11.42,0,0,1,1.41-.49,2.07,2.07,0,0,0,1.1-.94,1.81,1.81,0,0,0-.19-1.69c-.13-.27-.26-.48-.37-.48a1.38,1.38,0,0,0-.65.17L267,202a17.79,17.79,0,0,1-1.72.55l-.59.11.53-.23c.12-.06.19-.08.2-.06s0,.07-.13.17l-.06-.12a15,15,0,0,1,1.62-.8l1.33-.59a1.79,1.79,0,0,1,.93-.22.82.82,0,0,1,.51.34,3.7,3.7,0,0,1,.24.42,3.23,3.23,0,0,1,.35,1.06,1.76,1.76,0,0,1-.21,1.09,2.38,2.38,0,0,1-1.39,1.06A3,3,0,0,1,267,205Z" style="fill:#263238"></path><path d="M296.18,181.42a4.82,4.82,0,0,0-1.16,3.39c0,.43.23,1,.66.95a.81.81,0,0,0,.59-.45,4.79,4.79,0,0,0,.81-2.51,4.63,4.63,0,0,0,1.31,2.15,1.56,1.56,0,0,0,2.24-.25,1.53,1.53,0,0,0-.27-1.68,4.4,4.4,0,0,0-1.49-1,4.72,4.72,0,0,0,2,.16,1.68,1.68,0,0,0,1.38-1.27c.12-.89-.8-1.64-1.69-1.69a4.75,4.75,0,0,0-2.5.85,3.9,3.9,0,0,0,.87-3c-.07-.56-.39-1.19-.95-1.22a1.19,1.19,0,0,0-.94.57,3.12,3.12,0,0,0-.37,3,4.48,4.48,0,0,0-1.27-1.78,1.49,1.49,0,0,0-2,.14,1.68,1.68,0,0,0,0,1.72,3.55,3.55,0,0,0,2,1.81" style="fill:#DA983C"></path><path d="M303.06,185.45a2.56,2.56,0,0,0-.63,1.83c0,.23.12.52.36.51s.24-.12.32-.24a2.6,2.6,0,0,0,.43-1.35,2.41,2.41,0,0,0,.71,1.15.74.74,0,1,0,1.06-1,2.48,2.48,0,0,0-.8-.55,2.55,2.55,0,0,0,1.06.09.9.9,0,0,0,.74-.69c.07-.47-.43-.88-.91-.9a2.45,2.45,0,0,0-1.34.45,2.08,2.08,0,0,0,.46-1.61c0-.3-.21-.64-.51-.66a.63.63,0,0,0-.5.31,1.69,1.69,0,0,0-.21,1.61,2.28,2.28,0,0,0-.68-1,.82.82,0,0,0-1.08.07.94.94,0,0,0,0,.93,2,2,0,0,0,1.09,1" style="fill:#DA983C"></path><path d="M297.73,180.72a1,1,0,0,0-.34-.5.36.36,0,0,0-.52.11.86.86,0,0,0,0,.85.71.71,0,0,0,.33.37.44.44,0,0,0,.48-.05.46.46,0,0,0,.12-.38A1.4,1.4,0,0,0,297.73,180.72Z" style="fill:#fff"></path><polygon points="245.34 252.55 245.84 237.41 255.21 222.23 263.71 222.39 284.48 222.78 297.07 227.17 301.04 240.3 296.4 255.33 277.12 269.77 258.7 265.33 245.34 252.55" style="fill:#ffbf9d"></polygon><path d="M244.12,258.05c-.09.26-1.19-11.43,4.19-13.78,4.9-2.14,14.93,4,14.93,4s10.45-4.74,17.52-3.27S294,253.57,294,253.57l2.39,1.76-4.24,24.46,5.93,5.12c2,.89-30,21.87-37.82,21.53s-2.77-11.52-2.77-11.52A118.7,118.7,0,0,0,251.68,276C248.84,269.34,244.07,265.68,244.12,258.05Z" style="fill:#e0e0e0"></path><path d="M295.92,258.12a7.92,7.92,0,0,1-1.09-1c-.68-.67-1.64-1.66-2.9-2.8a40.71,40.71,0,0,0-4.7-3.65,21.74,21.74,0,0,0-6.59-3,18.34,18.34,0,0,0-7.19-.26,26.22,26.22,0,0,0-5.71,1.6,38.23,38.23,0,0,0-3.64,1.71,8.53,8.53,0,0,1-1.32.67,7,7,0,0,1,1.22-.85,29.62,29.62,0,0,1,3.6-1.87,24.78,24.78,0,0,1,5.78-1.73,18.22,18.22,0,0,1,7.39.23,21.4,21.4,0,0,1,6.72,3.07,37.24,37.24,0,0,1,4.69,3.78c1.24,1.19,2.16,2.22,2.8,2.93A9.39,9.39,0,0,1,295.92,258.12Z" style="fill:#fff"></path><path d="M267.58,239.5a28.55,28.55,0,0,0-2.82,4,29.81,29.81,0,0,0-1.61,4.63,10.43,10.43,0,0,1,4.43-8.64Z" style="fill:#ff9a6c"></path><path d="M292.16,279.79a1.42,1.42,0,0,1-.08.51,6.4,6.4,0,0,1-.55,1.37A14.27,14.27,0,0,1,288,285.8a42.76,42.76,0,0,1-6.89,4.11c-2.64,1.43-5.5,3.09-8.44,4.95a144.76,144.76,0,0,0-12,8.45l-.24.19-.09-.29c-1-3-1.75-5.46-2.33-7.27-.25-.83-.45-1.5-.62-2a3.31,3.31,0,0,1-.17-.72,3.28,3.28,0,0,1,.29.68l.73,2c.62,1.8,1.47,4.26,2.5,7.22l-.33-.1a126.79,126.79,0,0,1,12-8.56c2.95-1.86,5.83-3.52,8.49-4.93a45.34,45.34,0,0,0,6.89-4,15.14,15.14,0,0,0,3.57-3.94A11.75,11.75,0,0,0,292.16,279.79Z" style="fill:#263238"></path><path d="M269.66,268a4.53,4.53,0,0,1-1.79-.51,12.27,12.27,0,0,1-3.7-2.52,11.9,11.9,0,0,1-2.56-3.68,4.31,4.31,0,0,1-.53-1.77,15.91,15.91,0,0,0,8.58,8.48Z" style="fill:#263238"></path><path d="M292,275.13a1.49,1.49,0,0,1-.14.47,8.72,8.72,0,0,1-.58,1.3,11.66,11.66,0,0,1-3.53,3.82c-1.8,1.29-4.1,2.5-6.58,4s-5.25,3.06-8.12,4.75l-11,6.35-.16.1-.12-.15c-1.1-1.36-2-2.68-2.75-3.84l-2-3c-.56-.84-1-1.48-1.32-1.92a4.52,4.52,0,0,1-.46-.68,3.1,3.1,0,0,1,.57.6c.35.41.83,1,1.42,1.85l2.09,3c.81,1.14,1.7,2.46,2.79,3.77l-.28-.05,11-6.42L281,284.3c2.49-1.47,4.82-2.65,6.61-3.88a12,12,0,0,0,3.56-3.62C291.75,275.76,292,275.11,292,275.13Z" style="fill:#fff"></path><path d="M269.37,314.69a76.8,76.8,0,0,1-.37-9,81.25,81.25,0,0,1,.16-9,75.64,75.64,0,0,1,.36,9A80,80,0,0,1,269.37,314.69Z" style="fill:#263238"></path><path d="M273.39,299.08c-.14.05-.58-.84-1-2a4.84,4.84,0,0,1-.5-2.16c.13-.05.58.84,1,2A4.93,4.93,0,0,1,273.39,299.08Z" style="fill:#263238"></path><path d="M263,251.81c-.07.06-.76-.74-2.07-1.78a18,18,0,0,0-5.73-3,18.24,18.24,0,0,0-6.43-.76c-1.67.12-2.68.39-2.7.3s.23-.13.69-.27a10.55,10.55,0,0,1,2-.39,16.28,16.28,0,0,1,12.43,3.85,11.3,11.3,0,0,1,1.41,1.45C262.85,251.57,263,251.78,263,251.81Z" style="fill:#fff"></path><path d="M290.51,228s3.55-3.16,11.38,1c8.36,4.49,30.8,22.67,32,26.74S311.24,295,311.24,295l-7.72-6.05,13.16-30.2s-22.75-11.84-24.59-13.38S290.51,228,290.51,228Z" style="fill:#ffbf9d"></path><path d="M323.06,256.52a13.67,13.67,0,0,0-3.73.71,14.49,14.49,0,0,0-3.16,2.13c-.05,0,.14-.44.63-1a6.64,6.64,0,0,1,5.12-2.12C322.65,256.3,323.07,256.46,323.06,256.52Z" style="fill:#ff9a6c"></path><path d="M288.1,259.05c-3-9.83.55-20.76,6.89-28.87a28.56,28.56,0,0,0,1.87-2.94c.3-1.72-2.67-3.53-4.29-3.71a7,7,0,0,0-3.91.4c-6,4.77-9,13-9.28,20.66s2.13,15.26,5.7,22.06,10.47,10.75,15.15,16.83c.75-.73,1-1,1.72-1.75C299.88,272.83,290.79,267.78,288.1,259.05Z" style="fill:#263238"></path><path d="M316.38,258.9a3.76,3.76,0,0,1-.91-.42l-2.38-1.3-7.82-4.34-7.88-4.23-2.39-1.3a4,4,0,0,1-.84-.54,3.33,3.33,0,0,1,.93.36c.59.26,1.43.65,2.46,1.15,2.07,1,4.9,2.43,8,4.1s5.8,3.29,7.76,4.48c1,.6,1.76,1.1,2.3,1.45A3.71,3.71,0,0,1,316.38,258.9Z" style="fill:#ff9a6c"></path><path d="M296.88,277.44a2.73,2.73,0,0,1-.56-.3c-.35-.23-.9-.52-1.53-1a31.69,31.69,0,0,1-5.08-4.42,34.58,34.58,0,0,1-9.18-19.91,34.25,34.25,0,0,1,1-12.18,34.79,34.79,0,0,1,3.92-9.19,32,32,0,0,1,4.08-5.36c.52-.59,1-1,1.3-1.28a3.62,3.62,0,0,1,.48-.42s-.59.66-1.63,1.84A35.46,35.46,0,0,0,282,239.76a33.22,33.22,0,0,0,2.42,23.56,35.48,35.48,0,0,0,5.56,8.16,35,35,0,0,0,4.92,4.5C296.17,276.93,296.91,277.4,296.88,277.44Z" style="fill:#455a64"></path><path d="M303.66,288.6s-8.35,3.86-9.79,8.93c-.66,2.33-2.57,8.36-2.57,8.36a3.31,3.31,0,0,0,3.63-1.56,43.29,43.29,0,0,0,2.34-4.16l-.72,6.73c-1.78.5-1.87,1.51-1.51,2.3.61,1.37,3.34,1.25,3.34,1.25s1.05,1.75,3.35.22a2.73,2.73,0,0,0,3.07,0s1.12,1,2.75-.44,2.36-3.9,2.67-7.45c.26-3.12,1.95-11,1.95-11Z" style="fill:#ffbf9d"></path><path d="M300.94,306.48c.07,0,.11.3.09.78a4.52,4.52,0,0,1-.49,1.83,2.83,2.83,0,0,1-1.4,1.34c-.48.18-.8.12-.8.06s.27-.16.63-.39a3.22,3.22,0,0,0,1.11-1.25C300.67,307.65,300.76,306.45,300.94,306.48Z" style="fill:#ff9a6c"></path><path d="M303.24,308.41c.14,0,.1.8-.46,1.54s-1.28,1-1.34.87.46-.54.93-1.19S303.1,308.38,303.24,308.41Z" style="fill:#ff9a6c"></path><path d="M305.51,308.43c.13,0,.32.69-.05,1.49s-1,1.13-1.09,1,.33-.57.62-1.23S305.36,308.44,305.51,308.43Z" style="fill:#ff9a6c"></path><path d="M251.8,223.19c-2.64,2.9-5.54,8.21-6.14,12.17-.66,4.37-.06,9.32-.16,10.19l1-2.68c2.81-4.8,8.25-14.86,14.74-20.53C259.28,220.59,253.82,221,251.8,223.19Z" style="fill:#263238"></path><path d="M83.8,322.53c-.11.29-1.34,3.72-2.51,4.17a2.55,2.55,0,0,1-2.3-.51,4.1,4.1,0,0,1-2.58.8,4.43,4.43,0,0,1-2.32-1.42l-1.21.05a2.41,2.41,0,0,1-2.33-.93,4.4,4.4,0,0,0-1.64-2.1c-1.15-.66-.66-4.65-.54-6.62s.23-4.61,3.06-5.93a78.5,78.5,0,0,1,9-3.3l9.89,4.73s.57,1.9-1.31,5.32A19.13,19.13,0,0,1,83.8,322.53Z" style="fill:#ffbf9d"></path><path d="M84.85,331.32l-2.72-.71.7-2.68c.75-2.84-.61-5.67-3-6.3l-10-2.64c-2.42-.64-5,1.16-5.73,4l-.71,2.68L60.6,325l.7-2.67c1.21-4.61,5.39-7.52,9.3-6.49l10.05,2.63c3.91,1,6.12,5.62,4.91,10.23Z" style="fill:#263238"></path><rect x="21.6" y="325.91" width="88.12" height="62.11" rx="11.9" transform="translate(92.83 -4.97) rotate(14.72)" style="fill:#455a64"></rect><path d="M28.23,326l-1.53,5.86,20.21-12-5.68-1.49A10.65,10.65,0,0,0,28.23,326Z" style="fill:#fff;opacity:0.30000000000000004"></path><path d="M114.18,345.69a7.81,7.81,0,0,0-5.57-9.55l-6.74-1.77,10.5,18.21Z" style="fill:#fff;opacity:0.30000000000000004"></path><path d="M86.31,394.5l4.1,1.07a10.31,10.31,0,0,0,12.6-7.36l1.12-4.25Z" style="fill:#fff;opacity:0.30000000000000004"></path><path d="M30.91,380,19.34,359.89l-1.72,6.55a9.69,9.69,0,0,0,6.91,11.83Z" style="fill:#fff;opacity:0.30000000000000004"></path><rect x="41.95" y="320.09" width="6.55" height="63.23" transform="translate(90.83 0.05) rotate(14.72)" style="fill:#263238"></rect><path d="M48.48,339.29a3.23,3.23,0,0,1,.68,0,3.43,3.43,0,0,0,1.74-.51c1.52-.74,1.59-3.27,2.35-5.76l.18.31-3.17-.82-3.16-.84.3-.18c-.56,2.54-1.74,4.77-.78,6.17A3.44,3.44,0,0,0,47.88,339c.38.21.61.28.6.32a1.36,1.36,0,0,1-.67-.17,3.31,3.31,0,0,1-1.47-1.28,3.54,3.54,0,0,1-.32-2.92c.28-1.09.58-2.28.9-3.54l.06-.24.24.06,3.17.82,3.17.84.24.07-.07.24-1,3.52a3.54,3.54,0,0,1-1.71,2.39,3.33,3.33,0,0,1-1.9.4A1.52,1.52,0,0,1,48.48,339.29Z" style="fill:#455a64"></path><path d="M53.17,324.63a.72.72,0,0,1-.89.52.73.73,0,1,1,.37-1.41A.72.72,0,0,1,53.17,324.63Z" style="fill:#455a64"></path><path d="M52.15,328.52a.73.73,0,1,1-.52-.89A.73.73,0,0,1,52.15,328.52Z" style="fill:#455a64"></path><path d="M53.13,333.93l-5.9-1.55a1.27,1.27,0,0,1-.91-1.55h0a1.27,1.27,0,0,1,1.55-.91l5.91,1.55a1.29,1.29,0,0,1,.91,1.56h0A1.27,1.27,0,0,1,53.13,333.93Z" style="fill:#e0e0e0"></path><rect x="82.72" y="330.79" width="6.55" height="63.23" transform="translate(94.88 -9.96) rotate(14.72)" style="fill:#263238"></rect><path d="M89.25,350s.25,0,.68,0a3.37,3.37,0,0,0,1.73-.5c1.53-.75,1.6-3.27,2.35-5.76l.18.31L91,343.23l-3.17-.84.31-.18c-.57,2.55-1.75,4.78-.78,6.18a3.37,3.37,0,0,0,1.26,1.29,6.16,6.16,0,0,1,.6.31,1.44,1.44,0,0,1-.68-.16,3.31,3.31,0,0,1-1.46-1.28,3.56,3.56,0,0,1-.32-2.93c.27-1.09.57-2.27.89-3.53l.06-.25.25.07,3.17.82,3.16.84.25.07-.07.24c-.34,1.25-.66,2.43-1,3.51a3.53,3.53,0,0,1-1.72,2.39,3.16,3.16,0,0,1-1.9.4A1.31,1.31,0,0,1,89.25,350Z" style="fill:#455a64"></path><path d="M93.94,335.34a.73.73,0,1,1-.52-.89A.73.73,0,0,1,93.94,335.34Z" style="fill:#455a64"></path><path d="M92.92,339.23a.73.73,0,0,1-.89.52.73.73,0,1,1,.37-1.41A.73.73,0,0,1,92.92,339.23Z" style="fill:#455a64"></path><path d="M93.9,344.64,88,343.09a1.27,1.27,0,0,1-.9-1.55h0a1.26,1.26,0,0,1,1.55-.91l5.9,1.55a1.27,1.27,0,0,1,.91,1.55h0A1.27,1.27,0,0,1,93.9,344.64Z" style="fill:#e0e0e0"></path><path d="M88.77,395.14a17.44,17.44,0,0,0,2.81.33,11.92,11.92,0,0,0,7.52-2.53,11.67,11.67,0,0,0,3.56-4.55,18.22,18.22,0,0,0,1-3.18c.3-1.13.6-2.31.92-3.52,1.26-4.87,2.7-10.41,4.3-16.53q1.2-4.59,2.5-9.6c.44-1.68.88-3.38,1.34-5.12a13.11,13.11,0,0,0,.48-5.33,11.78,11.78,0,0,0-6.28-8.89c-.43-.22-.88-.4-1.34-.58s-.92-.31-1.41-.43l-2.94-.77-6-1.57L42.6,319.1a12.2,12.2,0,0,0-6.93.45,13.17,13.17,0,0,0-3.07,1.65,13.75,13.75,0,0,0-2.47,2.41,13,13,0,0,0-1.68,3,31.87,31.87,0,0,0-1,3.32c-.59,2.23-1.17,4.46-1.75,6.66L19,362a19,19,0,0,0-1,6,11.66,11.66,0,0,0,1.77,5.57,11.37,11.37,0,0,0,4.11,3.93,20.79,20.79,0,0,0,5.29,1.8l20,5.29,29,7.69L86,394.37l2,.56.69.21s-.24,0-.7-.16L86,394.47l-7.89-2-29-7.53-20-5.23c-.9-.24-1.8-.46-2.72-.72a11.62,11.62,0,0,1-2.68-1.12,11.83,11.83,0,0,1-4.28-4.07,11.83,11.83,0,0,1-1.59-8.91c.21-1,.51-2,.76-3,2.12-8.09,4.35-16.59,6.65-25.39.58-2.2,1.16-4.43,1.75-6.66a33.16,33.16,0,0,1,1-3.38,12.65,12.65,0,0,1,4.33-5.63,13.81,13.81,0,0,1,3.19-1.72,12.77,12.77,0,0,1,7.22-.47l52.65,13.82,6,1.58,2.93.77c.49.12,1,.3,1.46.45a14.28,14.28,0,0,1,1.39.61,12.15,12.15,0,0,1,6.5,9.23,13.32,13.32,0,0,1-.51,5.5c-.46,1.73-.91,3.44-1.35,5.11l-2.54,9.6c-1.62,6.11-3.08,11.64-4.37,16.5-.32,1.22-.64,2.39-.94,3.52a18,18,0,0,1-1,3.21,11.84,11.84,0,0,1-3.65,4.61,12,12,0,0,1-7.65,2.48,10.86,10.86,0,0,1-2.11-.26Z" style="fill:#263238"></path><path d="M74.56,324.59A17,17,0,0,0,76.44,321c.22-.59.41-1.2.69-1.77a4,4,0,0,1,1.14-1.49,2.23,2.23,0,0,1,1.79-.43,1.54,1.54,0,0,1,1.19,1.32,1.42,1.42,0,0,1,1.8-.26A2.23,2.23,0,0,1,84,320a5.46,5.46,0,0,1-.18,2,12.85,12.85,0,0,1-1,2.78,3.92,3.92,0,0,1-1.66,1.88,1.82,1.82,0,0,1-2.28-.51,2.69,2.69,0,0,1-1.92.53" style="fill:#ffbf9d"></path><path d="M77.22,316.93a1.92,1.92,0,0,0-1.5-1.56,2.57,2.57,0,0,0-2.18,1.31,18.42,18.42,0,0,0-2.44,5.85l.34,1.15a4.6,4.6,0,0,0,1.15.81,1.6,1.6,0,0,0,1.37,0,2.38,2.38,0,0,0,.87-1,19.43,19.43,0,0,0,1.88-3.69A7.25,7.25,0,0,0,77.22,316.93Z" style="fill:#ffbf9d"></path><path d="M79,326.19a10.52,10.52,0,0,1,.45-2.1c.33-1.29.82-3.06,1.39-5l.21-.72a1,1,0,0,1,.08-.22.58.58,0,0,1,.2-.21.88.88,0,0,1,.46-.12,3.13,3.13,0,0,1,1.4.44,1.91,1.91,0,0,1,.89,1,3.16,3.16,0,0,1,.18,1.13A6.19,6.19,0,0,1,84,322c-.11.36-.2.55-.23.54s.18-.82.13-2.11a2,2,0,0,0-.94-1.79,3,3,0,0,0-1.2-.37.39.39,0,0,0-.23.06c-.06.05,0,0-.09.18l-.21.72c-.57,1.94-1.1,3.7-1.51,5A10.47,10.47,0,0,1,79,326.19Z" style="fill:#ff9a6c"></path><path d="M74.09,325.57a7.76,7.76,0,0,1,.61-1.7c.43-1,1.06-2.44,1.77-4v0l.05-.18a5,5,0,0,1,1.31-2.21,2.11,2.11,0,0,1,2.05-.47,2.67,2.67,0,0,1,1.17.8c.21.25.28.42.26.44s-.15-.11-.39-.32a2.84,2.84,0,0,0-1.12-.61,1.81,1.81,0,0,0-1.69.47,4.68,4.68,0,0,0-1.15,2l0,.16v0h0C76.16,321.62,75.49,323,75,324A6.62,6.62,0,0,1,74.09,325.57Z" style="fill:#ff9a6c"></path><path d="M70.55,324.69a15.09,15.09,0,0,1,1.59-2.19l0,.06c.34-1.4.83-3.29,1.39-5.36.12-.45.24-.9.36-1.33l0-.1.08,0a3.9,3.9,0,0,1,1.42-.44,2.06,2.06,0,0,1,1.38.29,1.46,1.46,0,0,1,.68,1.07,3.1,3.1,0,0,1,0,1.06,6.37,6.37,0,0,1-.43,1.4c-.14.31-.24.47-.27.46s.25-.71.41-1.9c0-.56.07-1.4-.58-1.76a2.54,2.54,0,0,0-2.38.21l.11-.13c-.12.43-.24.87-.36,1.33-.56,2.07-1.09,3.94-1.5,5.33v0l0,0A14.38,14.38,0,0,1,70.55,324.69Z" style="fill:#ff9a6c"></path><path d="M80,308.06s-8.24,2.88-8.41,3.08-3.08,7.46-2.78,9.37.86,4.3.86,4.3,1.87.75,2.79-2.2,1.64-6.09,1.64-6.09l2.82-1s6.23,2.34,9.5-2.88" style="fill:#ffbf9d"></path><path d="M86.41,312.62a3.25,3.25,0,0,1-.41.66,4.7,4.7,0,0,1-.59.72,5.82,5.82,0,0,1-1,.84,7.26,7.26,0,0,1-3.18,1.25,10.12,10.12,0,0,1-4.44-.42H77l-2.81,1,.12-.13c-.34,1.45-.73,3-1.18,4.58a17.27,17.27,0,0,1-.82,2.42,3.4,3.4,0,0,1-.84,1.09,2,2,0,0,1-1.37.44,1.71,1.71,0,0,1-.49-.1l-.1,0,0-.11c-.16-.79-.32-1.57-.47-2.34-.08-.38-.15-.76-.23-1.14a7,7,0,0,1-.18-1.16A9.45,9.45,0,0,1,69,318c.18-.71.39-1.39.61-2.05.44-1.33.9-2.56,1.36-3.71q.18-.43.36-.84l.1-.21a.54.54,0,0,1,.07-.13l.14-.09.42-.17,1.55-.57c2-.71,3.57-1.25,4.69-1.61l1.28-.41a2.51,2.51,0,0,1,.45-.12s-.14.08-.42.2l-1.26.48-4.64,1.73-1.53.6-.38.16h0s0,0-.07-.05c.08.08,0,.06,0,.07v0l0,0-.09.19c-.11.28-.22.56-.34.84-.44,1.14-.89,2.38-1.32,3.69-.2.66-.41,1.34-.59,2A9.77,9.77,0,0,0,69,320.2a6.62,6.62,0,0,0,.18,1.1c.08.37.15.75.23,1.14.15.76.31,1.53.47,2.32l-.13-.15a1.64,1.64,0,0,0,.36.07,2,2,0,0,0,1.81-1.3A17.07,17.07,0,0,0,72.7,321c.46-1.58.86-3.11,1.2-4.55l0-.1.1,0,2.82-1,.05,0,.07,0a10,10,0,0,0,4.28.46,7.26,7.26,0,0,0,3.1-1.13A11,11,0,0,0,86.41,312.62Z" style="fill:#ff9a6c"></path><polygon points="77.16 306.7 96.44 275.23 96.02 248.32 115.75 266.13 111.25 293.94 91.3 314.89 77.16 306.7" style="fill:#DA983C"></polygon><path d="M100.43,223.81l-.7-7.62h0a66.14,66.14,0,0,0-4.27,29.47l.88,10.55,8.6,66.09,22-6,.36-19.56Z" style="fill:#DA983C"></path><path d="M105.8,316.48s-2.28-21-3.47-29.35-3-33-3-33,15.7,54.35,15.37,54.49S105.8,316.48,105.8,316.48Z" style="opacity:0.30000000000000004"></path><path d="M104.25,317.56a5.06,5.06,0,0,1-.15-.72c-.09-.53-.2-1.23-.34-2.09-.3-1.82-.68-4.46-1.15-7.71-.92-6.52-2.09-15.53-3.19-25.51s-2-19-2.6-25.58c-.3-3.23-.54-5.86-.71-7.75-.07-.88-.13-1.58-.17-2.11a3.44,3.44,0,0,1,0-.74,3.53,3.53,0,0,1,.13.72c.07.54.16,1.23.27,2.11.21,1.88.51,4.51.88,7.74l2.75,25.55c1.1,10,2.21,19,3,25.52.4,3.22.74,5.84,1,7.73l.24,2.1A3.73,3.73,0,0,1,104.25,317.56Z" style="fill:#263238"></path><path d="M165,430.79l9.2,8.27.88,1.33s-12.47,15.89-10.83,19l31.22-19.14L191.1,433l-14.68-14Z" style="fill:#263238"></path><path d="M183.9,433.12a1.5,1.5,0,0,1,1.77.91,1.45,1.45,0,0,1-.89,1.77,1.57,1.57,0,0,1-1.87-1,1.48,1.48,0,0,1,1.13-1.73" style="fill:#e0e0e0"></path><path d="M195.46,440.23l-1.64-2.47L164.5,457s-1,1.46-.26,2.34Z" style="fill:#455a64"></path><path d="M174.47,440.54c.1.15.9-.25,1.95-.22s1.85.43,2,.28-.66-.88-1.94-.9S174.35,440.42,174.47,440.54Z" style="fill:#fff"></path><path d="M172,443.9c.05.17.87,0,1.79.35s1.48.92,1.62.82-.28-1-1.42-1.4S171.94,443.76,172,443.9Z" style="fill:#fff"></path><path d="M172.57,449c.16,0-.1-.94-1-1.54s-1.82-.49-1.81-.32.73.34,1.47.84S172.41,449,172.57,449Z" style="fill:#fff"></path><path d="M123.41,215.08l-3.3-40.5c-.49-10.1-6.78-18.24-16.86-17.47l-.93.13a18.08,18.08,0,0,0-15.63,18.89c.47,8.76,1.11,18.42,1.8,23.06,1.42,9.6,11.24,9.79,11.24,9.79s.61,5.87.87,8.71L99,224.53l7.76-2.68Z" style="fill:#ffbf9d"></path><path d="M99.73,209a23.41,23.41,0,0,0,12-5.39s-2,7.63-11.74,8.07Z" style="fill:#ff9a6c"></path><path d="M92.3,184.1a1.39,1.39,0,0,0,1.51,1.21,1.33,1.33,0,0,0,1.25-1.43,1.39,1.39,0,0,0-1.51-1.21A1.33,1.33,0,0,0,92.3,184.1Z" style="fill:#263238"></path><path d="M89.31,180.1c.19.16,1.13-.75,2.61-.95s2.66.4,2.8.2-.15-.39-.67-.67a3.79,3.79,0,0,0-2.27-.38,3.65,3.65,0,0,0-2,1C89.33,179.69,89.21,180,89.31,180.1Z" style="fill:#263238"></path><path d="M107,182.32a1.39,1.39,0,0,0,1.51,1.2,1.31,1.31,0,0,0,1.25-1.43,1.39,1.39,0,0,0-1.51-1.21A1.34,1.34,0,0,0,107,182.32Z" style="fill:#263238"></path><path d="M103.84,178.48c.2.16,1.14-.75,2.61-.95s2.66.4,2.8.19-.15-.39-.67-.67a3.87,3.87,0,0,0-2.27-.37,3.59,3.59,0,0,0-2,1C103.86,178.07,103.75,178.41,103.84,178.48Z" style="fill:#263238"></path><path d="M100.08,190.56a9.53,9.53,0,0,0-2.46-.11c-.38,0-.75,0-.85-.26a2,2,0,0,1,.1-1.16c.23-1,.48-2,.73-3,1-4.3,1.66-7.82,1.49-7.86S98,181.57,97,185.87c-.23,1.06-.46,2.07-.68,3a2.21,2.21,0,0,0,0,1.5.94.94,0,0,0,.69.47,2.42,2.42,0,0,0,.66,0A10,10,0,0,0,100.08,190.56Z" style="fill:#263238"></path><path d="M102.74,173.93c.25.35,1.63-.25,3.37-.52s3.23-.2,3.36-.61c0-.2-.29-.5-1-.72a5.93,5.93,0,0,0-5.12.86C102.85,173.36,102.62,173.76,102.74,173.93Z" style="fill:#263238"></path><path d="M88.65,175.77c.35.3,1.51-.2,3-.39s2.71-.09,3-.48c.1-.19-.13-.5-.71-.75a5,5,0,0,0-4.76.7C88.62,175.25,88.5,175.62,88.65,175.77Z" style="fill:#263238"></path><path d="M120.29,181.81c.16-.1,6.35-2.85,7,3.75s-6.09,5.92-6.12,5.74S120.29,181.81,120.29,181.81Z" style="fill:#ffbf9d"></path><path d="M123,188.59s.12.06.32.13a1.14,1.14,0,0,0,.87-.07,2.86,2.86,0,0,0,1-2.69,3.9,3.9,0,0,0-.49-1.61,1.32,1.32,0,0,0-1-.79.59.59,0,0,0-.65.38c-.07.19,0,.32,0,.34s-.16-.1-.13-.38a.71.71,0,0,1,.22-.44.88.88,0,0,1,.61-.23,1.61,1.61,0,0,1,1.31.9,3.84,3.84,0,0,1,.59,1.8,3,3,0,0,1-1.38,3,1.25,1.25,0,0,1-1.07-.06C123,188.74,122.94,188.6,123,188.59Z" style="fill:#ff9a6c"></path><path d="M104.83,191c-.23,0-.1,1.53-1.3,2.72s-2.84,1.17-2.83,1.38.39.27,1.07.22a3.78,3.78,0,0,0,2.37-1.07,3.28,3.28,0,0,0,1-2.27C105.13,191.38,104.93,191,104.83,191Z" style="fill:#263238"></path><path d="M72.54,168.69a1.56,1.56,0,0,1,.63-1A4.79,4.79,0,0,1,75.6,167a14,14,0,0,0,5.88-2.16,6.9,6.9,0,0,1-1.91-1.06,4.17,4.17,0,0,1-1.62-4,.93.93,0,0,1,.45-.69c.42-.17.84.21,1.17.51a3.59,3.59,0,0,0,3.51,1.07,5.81,5.81,0,0,0,2.43-1,.86.86,0,0,0,.07-.1l.9-1.12h0a22.13,22.13,0,0,1,6.29-5.78,22.62,22.62,0,0,1,11.88-2.2c3.45.53,6.76,2.94,7.59,6.33,1.71-1.79,4.54-2.07,6.94-1.39l0,0c2.65.64,4.39,3.19,5.42,5.72,0,.13.11.27.16.41a10.26,10.26,0,0,0,3.79,3c.27.12.57.27.63.55a.82.82,0,0,1-.37.72,5.05,5.05,0,0,1-2,1.08,11.47,11.47,0,0,0,1,1.71c.34.46.74,1,.54,1.54a1.06,1.06,0,0,1-1.07.61,3.35,3.35,0,0,1-1.25-.41l1.07,2a6.16,6.16,0,0,1-2.8.1c-.29,2.5-.22,7.06-.67,8.77-1.75.22-2.2.07-3,.46-1.1.5-.46,2.48-2,2.06-.79-.21-2.26-3-2.59-3.71a37.78,37.78,0,0,1-3.31-15.78,12.09,12.09,0,0,0-4-2.31l.13.09c-2.8-.65-6-1.25-8.38.28-1.88,1.2-2.83,3.38-4.15,5.18a13.88,13.88,0,0,1-9.67,6c-.07,2.95.32,7.73.46,10.46l-2.9-5.2v0c-.22-.3-.41-.61-.59-.91l-.06-.1h0c-.29-.49-.58-1-.93-1.47l0,0a1.71,1.71,0,0,1-2.73-2,3.83,3.83,0,0,1,.74-.91,2.71,2.71,0,0,1-2.49.93,2.12,2.12,0,0,1-1.71-1.93,1.78,1.78,0,0,1,.92-1.55,6,6,0,0,1-3.53-.4C73.13,170.14,72.39,169.57,72.54,168.69Z" style="fill:#263238"></path><path d="M109.31,158.27a10.09,10.09,0,0,1,1.06.79,6.87,6.87,0,0,1,1.82,3.05,12,12,0,0,1,.51,2.43c.1.89.13,1.85.16,2.86a25.68,25.68,0,0,0,.26,3.18,10.88,10.88,0,0,0,.4,1.64,3.45,3.45,0,0,0,.85,1.55,1.46,1.46,0,0,0,1.41.32,2.22,2.22,0,0,0,1.16-.82,5.11,5.11,0,0,0,.67-2.56l-.2,0a8.09,8.09,0,0,0,1.39,1.9,2.85,2.85,0,0,0,2,.82,1.75,1.75,0,0,0,1-.28,1.59,1.59,0,0,0,.61-.73,1.69,1.69,0,0,0,.11-.88,1.12,1.12,0,0,0-.39-.72l-.09.1a6.25,6.25,0,0,0,2.24,1.34,5,5,0,0,0,.67.18l.24,0-.23-.07c-.15-.05-.37-.11-.65-.22a6.29,6.29,0,0,1-2.17-1.37l-.1.1a1.25,1.25,0,0,1,.22,1.43,1.53,1.53,0,0,1-.55.66,1.67,1.67,0,0,1-.89.24,2.75,2.75,0,0,1-1.85-.79,8.44,8.44,0,0,1-1.34-1.86l-.17-.3,0,.34a4.9,4.9,0,0,1-.64,2.45,1.93,1.93,0,0,1-1,.73,1.23,1.23,0,0,1-1.2-.27,3.31,3.31,0,0,1-.79-1.45,11.43,11.43,0,0,1-.39-1.61,27,27,0,0,1-.27-3.15c0-1-.08-2-.18-2.87a13,13,0,0,0-.54-2.46,6.87,6.87,0,0,0-1.92-3.07A4,4,0,0,0,109.31,158.27Z" style="fill:#455a64"></path><path d="M80.41,170.82l.08.06.26.15.44.22c.18.07.38.17.62.24a8.48,8.48,0,0,0,4.22.31,11,11,0,0,0,5.6-2.76,19.25,19.25,0,0,0,4.4-6.31c.58-1.24,1-2.5,1.54-3.67a12.76,12.76,0,0,1,1.85-3.17,6.7,6.7,0,0,1,2.61-2,4.75,4.75,0,0,1,1.45-.33A5.38,5.38,0,0,1,107,154.7a5.3,5.3,0,0,1,1.24,1.3,5.88,5.88,0,0,1,.65,1.4s0,0,0-.1a3.09,3.09,0,0,1-.08-.3,5.74,5.74,0,0,0-.48-1.05,5.6,5.6,0,0,0-1.24-1.35,5.69,5.69,0,0,0-2.18-1.06,5.48,5.48,0,0,0-1.42-.13,4.86,4.86,0,0,0-1.51.32,6.94,6.94,0,0,0-2.7,2A13.44,13.44,0,0,0,97.37,159c-.52,1.18-1,2.44-1.54,3.67a19,19,0,0,1-4.34,6.24A10.88,10.88,0,0,1,86,171.64a8.79,8.79,0,0,1-4.16-.23A13.82,13.82,0,0,1,80.41,170.82Z" style="fill:#455a64"></path><path d="M79.08,166.66a1.49,1.49,0,0,0,.38.21,6.93,6.93,0,0,0,1.08.41,9.88,9.88,0,0,0,1.68.37,12,12,0,0,0,2.1,0,11.54,11.54,0,0,0,2.08-.36,10.78,10.78,0,0,0,1.61-.6,6.82,6.82,0,0,0,1-.57,1.54,1.54,0,0,0,.34-.25s-.53.29-1.42.67a11.21,11.21,0,0,1-1.59.55,13.35,13.35,0,0,1-2,.34,14,14,0,0,1-2.07,0,12.07,12.07,0,0,1-1.66-.31C79.65,166.88,79.1,166.63,79.08,166.66Z" style="fill:#455a64"></path><path d="M113.19,307.66s-43.68,51.51-45,58.81S86.69,442,86.69,442l23.67-3.76L98.27,375.34,141,337.61s13.89-10.21,17.78-18.72.73-14.84.73-14.84l-.49-8.59-47.12,4.43Z" style="fill:#263238"></path><path d="M121.63,350.53c.17,1.13,3,35.21,6.86,41.26,15.27,23.75,40.43,49.15,40.43,49.15l18.87-13.41-35.74-47.29-1.78-46.44,3.66-10.95,3-7.31-23.5-.44Z" style="fill:#263238"></path><path d="M149.12,330.78a3.9,3.9,0,0,1-.49.48l-1.46,1.32-5.43,4.8-17.87,15.87c-7,6.2-13.33,11.78-18,15.76-2.32,2-4.21,3.59-5.53,4.68l-1.53,1.24a3.73,3.73,0,0,1-.56.41,3.49,3.49,0,0,1,.49-.49l1.46-1.32,5.43-4.8,17.88-15.87c7-6.2,13.32-11.78,18-15.76,2.33-2,4.22-3.58,5.54-4.67l1.53-1.25A2.73,2.73,0,0,1,149.12,330.78Z" style="fill:#455a64"></path><path d="M87.17,430.43l4.43,18.35s-17.15,10.66-16.66,14.13l35.87-7.32-5.73-28.86Z" style="fill:#263238"></path><path d="M102.38,445a1.49,1.49,0,0,1,1.35,1.46,1.43,1.43,0,0,1-1.44,1.36,1.58,1.58,0,0,1-1.42-1.56,1.48,1.48,0,0,1,1.65-1.24" style="fill:#e0e0e0"></path><path d="M110.81,455.59l-.69-2.88L76,460.81s-1.45,1-1,2.1Z" style="fill:#455a64"></path><path d="M91,448.71c0,.18.93.08,1.91.46s1.58,1,1.73.93-.32-1.06-1.51-1.51S90.92,448.56,91,448.71Z" style="fill:#fff"></path><path d="M87.54,451c0,.17.82.32,1.56.94s1.08,1.37,1.25,1.32.08-1.05-.86-1.81S87.51,450.87,87.54,451Z" style="fill:#fff"></path><path d="M86.32,456c.17,0,.24-.92-.41-1.79s-1.54-1.08-1.59-.92.57.57,1.09,1.29S86.15,456,86.32,456Z" style="fill:#fff"></path><path d="M90.44,444.42c.11.14.86-.26,1.86-.4s1.84,0,1.9-.14-.81-.65-2-.47S90.33,444.3,90.44,444.42Z" style="fill:#fff"></path><path d="M100.35,215h0s-2.55,4.68-2.8,8.08c-.21,2.76-.09,6.08-.1,6.31-.19,4.1-1.64,3.69-.68,10.94.57,4.36,6.8,34.4,6.8,34.4s2.16,24.78,4.31,28.34c2.46,4.08,7.33,1.25,7.33,1.25l43.73-6.16s4.12-4.46,3.29-9.07-5.27-15.74-4.77-17l-5.62-17.45-.22-4.31-12.09-39.51L125,207.19,122.72,203,102.18,215.8l-.9,6.15Z" style="fill:#ebebeb"></path><path d="M125.87,206.59l-2.25-2.78s-11.05,6.54-12.6,13.52-2.26,28,.25,35.44c1.31,3.89,11.41,29.29,27.32,42.31,18.3,15,16,31.71,19.38,32.58,7.05,1.82,27.58-13.61,29.88-15.27s-29.56-41.83-29.56-41.83l-9.5-24.2-4.26-32h0a19,19,0,0,0-9.93-5.34Z" style="fill:#DA983C"></path><path d="M109.28,219.67a22.82,22.82,0,0,1-1.35,2.44,64.39,64.39,0,0,0-3,6.12l-.28.66-.21-.69c-.07-.26-.16-.54-.24-.83-.82-2.77-1.47-5.31-1.87-7.17a13,13,0,0,1-.47-3,28.21,28.21,0,0,1,.83,3c.49,1.83,1.19,4.35,2,7.12.08.28.16.56.24.82l-.48,0a43.71,43.71,0,0,1,3.12-6.09A11.84,11.84,0,0,1,109.28,219.67Z" style="fill:#263238"></path><g style="opacity:0.30000000000000004"><path d="M118.11,267.12c-.13-.52,9.59,13.51,16.29,18.44s13.88,9.54,18.79,16.25A34,34,0,0,1,159.06,328s-1.95,0-3.19-4.47-3.7-13.66-8.39-19.14-14.29-13.88-17.45-18S118.93,270.3,118.11,267.12Z"></path></g><path d="M116.66,307.76a4.61,4.61,0,0,1-.28-.77c-.17-.55-.41-1.3-.71-2.24-.61-1.94-1.43-4.77-2.39-8.29-1.92-7-4.28-16.84-6.27-27.79s-3.21-21-3.88-28.22c-.33-3.63-.56-6.58-.67-8.61l-.12-2.35a7.08,7.08,0,0,1,0-.81,4.08,4.08,0,0,1,.12.81c0,.58.12,1.36.22,2.33.17,2,.45,5,.83,8.59.76,7.24,2,17.23,4,28.17s4.29,20.73,6.12,27.78c.91,3.53,1.68,6.38,2.23,8.34.26.94.46,1.7.61,2.26A4,4,0,0,1,116.66,307.76Z" style="fill:#263238"></path><path d="M158.22,270a8.68,8.68,0,0,1-1.42,1.6c-.93.93-2.26,2.18-3.8,3.47s-3,2.37-4.1,3.11a8,8,0,0,1-1.84,1.08c-.09-.13,2.55-2,5.61-4.59S158.11,269.85,158.22,270Z" style="fill:#263238"></path><path d="M116.52,217.4a51.47,51.47,0,0,1,4.1-5.93,50.19,50.19,0,0,1,4.52-5.62,49.05,49.05,0,0,1-4.1,5.93A48.9,48.9,0,0,1,116.52,217.4Z" style="fill:#263238"></path><path d="M98.68,226.31l1.44,3,2.21.22,1.4-4.47-1.08-3.89s-3.28,1.57-3.31,1.57S98.68,226.31,98.68,226.31Z" style="fill:#DA983C"></path><path d="M99.55,218.5a46.77,46.77,0,0,1-1.06,5.32,49.69,49.69,0,0,1-1.15,5.3,20.1,20.1,0,0,1,.64-5.41A20.57,20.57,0,0,1,99.55,218.5Z" style="fill:#263238"></path><path d="M99.81,222.78c-.47-.55-.87-1.25-1.36-1.76a1.42,1.42,0,0,0-1.74-.46,2.18,2.18,0,0,0-.75,1.18,6.84,6.84,0,0,0-.21,1.58,16.24,16.24,0,0,0,.72,5.46c.13.38.29.79.58.89s.64-.2.89-.53a14.6,14.6,0,0,0,2.06-3.76Z" style="fill:#DA983C"></path><path d="M109.32,220.54a5.39,5.39,0,0,0-.6-1.7,2.43,2.43,0,0,0-1.35-1.13,1.79,1.79,0,0,0-1.69.19,6.78,6.78,0,0,0-1.43,1.93,16,16,0,0,0-1.35,3l.21,3.35a8.26,8.26,0,0,0,3,4.65,2,2,0,0,0,1.81.51c.71-.26,1-1.13,1.08-1.87A24.06,24.06,0,0,0,109.32,220.54Z" style="fill:#DA983C"></path><path d="M99,227.12a5.22,5.22,0,0,1,.14-2.25,5,5,0,0,1,.66-2.16,5,5,0,0,1-.14,2.25C99.47,226.18,99.18,227.15,99,227.12Z" style="fill:#263238"></path><path d="M103,227.58a15.88,15.88,0,0,1-3.24-4.8,8.47,8.47,0,0,1,1.83,2.25A8.27,8.27,0,0,1,103,227.58Z" style="fill:#263238"></path><path d="M103.5,226.3s-.27-.11-.48-.48a3.46,3.46,0,0,1-.4-1.56,3.55,3.55,0,0,1,.47-2.18c.16,0,0,1,0,2.16A18.29,18.29,0,0,0,103.5,226.3Z" style="fill:#263238"></path><path d="M107.2,221c.08.13-1,.81-2,1.88s-1.73,2.11-1.86,2a4.63,4.63,0,0,1,1.49-2.4A4.52,4.52,0,0,1,107.2,221Z" style="fill:#263238"></path><path d="M107.45,225.53a11.22,11.22,0,0,1-2-.05,11.28,11.28,0,0,1-2,.07c-.06-.13.83-.59,2-.59S107.51,225.4,107.45,225.53Z" style="fill:#263238"></path><path d="M114.74,245.66s0-.14.1-.38c.46-1.73,2.33-8.58,3.27-7.91l7.23,5" style="fill:#fff"></path><path d="M127.6,245.76a7.82,7.82,0,0,1-.38-1c-.22-.62-.53-1.52-.9-2.64l.2.1c-3.12,1-8.1,2.59-13.71,4.31l.17-.32h0v0l0,.06,0,.12.07.24.15.47c.09.31.19.62.28.93.19.61.37,1.22.55,1.81l-.31-.17c3.88-1.17,7.29-2.16,9.76-2.87l2.93-.82a7.45,7.45,0,0,1,1.12-.27,6,6,0,0,1-1,.36l-2.83.94c-2.43.8-5.89,1.92-9.87,3.15l-.24.07-.07-.24c-.19-.59-.37-1.2-.56-1.81-.1-.31-.19-.62-.29-.93l-.14-.47-.08-.24,0-.11,0-.06v0h0l.18-.33c5.61-1.72,10.61-3.21,13.76-4.11l.16,0,0,.15c.35,1.2.6,2.15.76,2.78A4.8,4.8,0,0,1,127.6,245.76Z" style="fill:#263238"></path><polygon points="130.35 238.14 155.92 264.51 152.22 254.95 130.35 238.14" style="opacity:0.30000000000000004"></polygon><path d="M159.34,325.05a3.85,3.85,0,0,1,0-.77c0-.51,0-1.25,0-2.2a35.45,35.45,0,0,0-1.16-8,38.61,38.61,0,0,0-4.79-10.91A43.59,43.59,0,0,0,149,297.6a49.21,49.21,0,0,0-5.58-5.13c-4.08-3.25-8.26-6-11.77-8.88a66.9,66.9,0,0,1-8.41-8.64,65.23,65.23,0,0,1-4.81-6.55c-.51-.81-.89-1.45-1.13-1.9a3.85,3.85,0,0,1-.34-.69,5.06,5.06,0,0,1,.43.64c.26.42.67,1,1.21,1.84a73.19,73.19,0,0,0,4.92,6.42,69.18,69.18,0,0,0,8.44,8.51c3.49,2.86,7.68,5.57,11.78,8.84a49.37,49.37,0,0,1,5.64,5.19,42.73,42.73,0,0,1,4.33,5.68A37.68,37.68,0,0,1,158.48,314a32.91,32.91,0,0,1,1,8.06,21.35,21.35,0,0,1-.07,2.21A5.74,5.74,0,0,1,159.34,325.05Z" style="fill:#263238"></path><path d="M185.42,291.24c.23.75,7.1,8.32,7.1,8.32s5,5.84,5.7,7.57a23.86,23.86,0,0,1,1.13,4.58s-.21,2.7-2,3c0,0,.37,4.15-2.37,4-.33,0-1.07-.14-1.07-.14a2.88,2.88,0,0,1-3.06,2c-2.53-.11-4-3.61-4-3.61a3.54,3.54,0,0,0,.76-4.17c-1.1-2.68-4.56-4.17-4.56-4.17l2.07,6.67c-.74.89-3.47.12-5.29-1.58-1.81-2.59-1.54-5.66-1.34-7.28.08-.73.76-3.28.76-3.28-.68-3.36-4.45-7.12-4.45-7.12Z" style="fill:#ffbf9d"></path><path d="M188.26,312.06l1.38-1.24a1.54,1.54,0,0,0,.65-1.48,1.25,1.25,0,0,0-1.52-.7,8,8,0,0,0-1.63.84,4.14,4.14,0,0,0,1.2-1.33,1.49,1.49,0,0,0-.41-1.7,2.1,2.1,0,0,0-2.13.23,36.45,36.45,0,0,0-3.36,2.06l-.88.81a1.56,1.56,0,0,0-.28,2l.19.21c.47.44,2.12,0,2.12,0-.28.6-.45,1.64,0,2.11a1.69,1.69,0,0,0,1.84.32,3.91,3.91,0,0,0-.39,1.41,1.38,1.38,0,0,0,.62,1.25c.69.38,1.51-.13,2.09-.66a14.13,14.13,0,0,0,1.58-1.61,3.47,3.47,0,0,0,.8-1.34,1.41,1.41,0,0,0-.36-1.44C189.4,311.49,188.26,312.06,188.26,312.06Z" style="fill:#ffbf9d"></path><path d="M188.26,312.06a.57.57,0,0,1,.2-.13,3.4,3.4,0,0,1,.64-.25,1.45,1.45,0,0,1,.52,0,.82.82,0,0,1,.51.42,1.75,1.75,0,0,1,.08,1.51,4.5,4.5,0,0,1-1.05,1.5c-.47.46-.92,1-1.49,1.51a3.13,3.13,0,0,1-1.08.59,1.34,1.34,0,0,1-1.34-.34,1.78,1.78,0,0,1-.42-1.36,4.94,4.94,0,0,1,.39-1.34l.33.31a1.9,1.9,0,0,1-2.17-.43,1.65,1.65,0,0,1-.31-1.19,3.53,3.53,0,0,1,.28-1.14l.3.35a5.38,5.38,0,0,1-1.68.2,1.54,1.54,0,0,1-.48-.12,1.27,1.27,0,0,1-.4-.35,1.61,1.61,0,0,1-.33-.92,1.93,1.93,0,0,1,.53-1.4l1-.9h0l2.36-1.43a5.84,5.84,0,0,1,2.43-1.09,1.41,1.41,0,0,1,1.28.54,1.77,1.77,0,0,1,.28,1.28,1.94,1.94,0,0,1-.56,1.09,7.83,7.83,0,0,1-.82.72l-.23-.33a8.6,8.6,0,0,1,1.43-.76,1.65,1.65,0,0,1,1.52.13,1.11,1.11,0,0,1,.44,1.25,2.09,2.09,0,0,1-.63.91c-.9.74-1.51,1.18-1.53,1.22s.41-.45,1.38-1.39a1.87,1.87,0,0,0,.51-.81.78.78,0,0,0-.35-.91,1.3,1.3,0,0,0-1.2-.06,8.72,8.72,0,0,0-1.35.75.2.2,0,0,1-.28-.05.21.21,0,0,1,0-.27h0c.48-.4,1.12-.89,1.18-1.54a1.28,1.28,0,0,0-.21-.94,1,1,0,0,0-.88-.35,5.57,5.57,0,0,0-2.21,1L182.58,309l0,0-.94.88a1.39,1.39,0,0,0-.39,1,1,1,0,0,0,.23.62c.08.09.15.18.21.2a.83.83,0,0,0,.3.07,5.12,5.12,0,0,0,1.5-.17.26.26,0,0,1,.32.18.32.32,0,0,1,0,.17,2,2,0,0,0-.06,1.8,1.42,1.42,0,0,0,1.58.31.25.25,0,0,1,.32.12.25.25,0,0,1,0,.19,4.22,4.22,0,0,0-.37,1.2,1.32,1.32,0,0,0,.28,1c.48.54,1.31.17,1.83-.26s1-1,1.49-1.43a4.37,4.37,0,0,0,1-1.37,1.52,1.52,0,0,0,0-1.29.61.61,0,0,0-.35-.34,1.14,1.14,0,0,0-.45,0C188.57,311.94,188.28,312.09,188.26,312.06Z" style="fill:#ff9a6c"></path><path d="M199.37,311a77.6,77.6,0,0,0-3.83-6.93c-2.46-3.61-4.83-6.29-4.69-6.41a10.41,10.41,0,0,1,1.65,1.67,41.6,41.6,0,0,1,3.47,4.45,29.23,29.23,0,0,1,2.68,5A8.88,8.88,0,0,1,199.37,311Z" style="fill:#ff9a6c"></path><path d="M192.92,315.66c.1-.1.74.51,1,1.54s-.06,1.86-.2,1.82-.09-.8-.31-1.7S192.8,315.75,192.92,315.66Z" style="fill:#ff9a6c"></path><path d="M196.54,312.38c.13-.05.4.49.59,1.21s.23,1.31.09,1.34-.4-.52-.59-1.21S196.4,312.43,196.54,312.38Z" style="fill:#ff9a6c"></path><path d="M189.21,311.37c.09.12-.73.89-1.83,1.74s-2,1.43-2.14,1.31.73-.88,1.83-1.73A6.3,6.3,0,0,1,189.21,311.37Z" style="fill:#ff9a6c"></path><path d="M187.67,309.22a9.73,9.73,0,0,1-2.08,1.44A9.61,9.61,0,0,1,183.4,312c-.09-.1.7-1,1.91-1.73A4.88,4.88,0,0,1,187.67,309.22Z" style="fill:#ff9a6c"></path><path d="M128,236.3l32.68,25.13,13,39.61,17.22-4.33-11.53-39.15a40.26,40.26,0,0,0-9.56-16.49l-25.49-26.62a16.64,16.64,0,0,0-13.67-5.53,12,12,0,0,0-7.72,4.13c-3.77,5.28-2.61,11.48-2.2,13.36" style="fill:#DA983C"></path><path d="M120.7,226.41a14.25,14.25,0,0,1-.43-2.36,17.4,17.4,0,0,1,.5-6.84,13.94,13.94,0,0,1,2.21-4.46,11.5,11.5,0,0,1,4.89-3.32,13.07,13.07,0,0,1,6.77-.51,17,17,0,0,1,7,3,20.36,20.36,0,0,1,3.06,2.76l3,3.08,6.29,6.55,13.87,14.44c1.21,1.28,2.48,2.53,3.66,3.92A40.23,40.23,0,0,1,174.8,247a40.9,40.9,0,0,1,4.74,10.29c2.17,7.36,4.41,15,6.71,22.79,1.66,5.61,3.28,11.13,4.86,16.52l.08.25-.26.07-17.22,4.32-.23.06-.07-.22c-4.86-14.86-9.25-28.32-12.95-39.63l.06.1-23.83-18.44-6.49-5.05-1.68-1.33c-.38-.3-.56-.47-.56-.47l.59.42,1.72,1.29,6.55,5,23.94,18.29.05,0,0,.06L173.89,301l-.3-.16,17.21-4.34-.18.32c-1.59-5.38-3.21-10.9-4.87-16.52-2.29-7.8-4.54-15.42-6.7-22.78a39.92,39.92,0,0,0-4.67-10.17,38.32,38.32,0,0,0-3.24-4.37c-1.16-1.37-2.43-2.63-3.64-3.91l-13.83-14.48c-2.17-2.26-4.26-4.46-6.27-6.56l-3-3.1a20.1,20.1,0,0,0-3-2.72,16.54,16.54,0,0,0-6.87-2.92,12.68,12.68,0,0,0-6.61.45,11.3,11.3,0,0,0-4.79,3.2,13.55,13.55,0,0,0-2.21,4.37,17.64,17.64,0,0,0-.6,6.77c.07.78.16,1.37.23,1.77S120.7,226.41,120.7,226.41Z" style="fill:#263238"></path></g></svg>
