<svg width="61" height="79" viewBox="0 0 61 79" fill="none" xmlns="http://www.w3.org/2000/svg">
<path d="M30.5 76.3333C30.5 76.3333 58 54.3333 58 30.5C58 15.3121 45.6879 3 30.5 3C15.3121 3 3 15.3121 3 30.5C3 54.3333 30.5 76.3333 30.5 76.3333Z" fill="#FF2F2F" stroke="black" stroke-width="4.92214" stroke-linejoin="round"/>
<path d="M30.9402 44.9261C38.2304 44.9261 44.1402 39.0163 44.1402 31.7261C44.1402 24.436 38.2304 18.5261 30.9402 18.5261C23.6501 18.5261 17.7402 24.436 17.7402 31.7261C17.7402 39.0163 23.6501 44.9261 30.9402 44.9261Z" fill="white" stroke="white" stroke-width="4.92214" stroke-linejoin="round"/>
<path d="M26.367 36.5084C27.6604 35.4951 28.7204 34.6218 29.547 33.8884C30.3737 33.1551 31.067 32.4018 31.627 31.6284C32.187 30.8418 32.467 30.0951 32.467 29.3884C32.467 28.9618 32.367 28.6284 32.167 28.3884C31.9804 28.1484 31.7004 28.0284 31.327 28.0284C30.9404 28.0284 30.6404 28.1951 30.427 28.5284C30.2137 28.8484 30.1137 29.3218 30.127 29.9484H26.327C26.367 28.7618 26.627 27.7818 27.107 27.0084C27.587 26.2218 28.2137 25.6484 28.987 25.2884C29.7604 24.9151 30.6204 24.7284 31.567 24.7284C33.207 24.7284 34.427 25.1351 35.227 25.9484C36.027 26.7618 36.427 27.8151 36.427 29.1084C36.427 30.4951 35.9604 31.7951 35.027 33.0084C34.107 34.2218 32.9537 35.3084 31.567 36.2684H36.567V39.4484H26.367V36.5084Z" fill="black"/>
</svg>
