<svg width="107" height="107" viewBox="0 0 107 107" fill="none" xmlns="http://www.w3.org/2000/svg">
<rect x="2" y="1.62207" width="103" height="103" rx="51.5" stroke="#4C4C4C" stroke-width="3"/>
<path d="M22.25 50.2471C22.25 48.5869 23.6172 47.1221 25.375 47.1221H31.625V78.3721H23.8125C22.9336 78.3721 22.25 77.6885 22.25 76.8096V50.2471ZM57.4062 45.5596C57.7969 45.5596 58.1875 45.9502 58.1875 46.3408V47.9033C58.1875 48.3916 57.7969 48.6846 57.4062 48.6846H52.7188C52.2305 48.6846 51.9375 48.3916 51.9375 47.9033V41.6533C51.9375 41.2627 52.2305 40.8721 52.7188 40.8721H54.2812C54.6719 40.8721 55.0625 41.2627 55.0625 41.6533V45.5596H57.4062ZM70.7852 39.4072C71.6641 39.8955 72.25 40.8721 72.25 41.9463V78.3721H59.75V64.3096C59.75 63.5283 58.9688 62.7471 58.1875 62.7471H48.8125C47.9336 62.7471 47.25 63.5283 47.25 64.3096V78.3721H34.75V41.9463C34.75 40.8721 35.2383 39.8955 36.1172 39.4072L51.7422 28.958C52.2305 28.5674 52.8164 28.4697 53.5 28.4697C54.0859 28.4697 54.6719 28.5674 55.1602 28.958L70.7852 39.4072ZM53.5 53.3721C57.7969 53.3721 61.3125 49.9541 61.3125 45.5596C61.3125 41.2627 57.7969 37.7471 53.5 37.7471C49.1055 37.7471 45.6875 41.2627 45.6875 45.5596C45.6875 49.9541 49.1055 53.3721 53.5 53.3721ZM81.625 47.1221C83.2852 47.1221 84.75 48.5869 84.75 50.2471V76.8096C84.75 77.6885 83.9688 78.3721 83.1875 78.3721H75.375V47.1221H81.625Z" fill="#4C4C4C"/>
</svg>
